<svg width="261" height="234" viewBox="0 0 261 234" fill="none" xmlns="http://www.w3.org/2000/svg">
<path d="M114.781 70.2604V55.2031C114.781 55.2031 114.984 29.9167 83.7865 29.9167C52.5886 29.9167 2.66669 64.0625 2.66669 101.021V208.823C2.66669 208.823 3.0521 230.729 24.5781 230.729H58.724C58.724 230.729 114.781 229.641 114.781 152.422V117.073" stroke="#FFF268" stroke-width="5.33333" stroke-miterlimit="10"/>
<path d="M51.7552 79.4011C51.7552 79.4011 47.7656 90.375 62.9323 103.948L73.3906 113.724M84.2135 113.724V138.135C84.2135 138.135 52.0208 135.318 56.4479 174.042M145.99 70.2604V55.2031C145.99 55.2031 145.786 29.9167 176.984 29.9167C208.177 29.9167 258.104 64.0625 258.104 101.021V208.823C258.104 208.823 257.719 230.729 236.193 230.729H202.047C202.047 230.729 145.99 229.641 145.99 152.422V117.073" stroke="#FFF268" stroke-width="5.33333" stroke-miterlimit="10"/>
<path d="M229.37 113.724H167.906L130.385 79.4011L92.8646 113.724H31.4011" stroke="#FFF268" stroke-width="5.33333" stroke-miterlimit="10"/>
<path d="M209.016 79.401C209.016 79.401 213.005 90.375 197.839 103.948L187.38 113.724M176.557 113.724V138.135C176.557 138.135 208.75 135.318 204.323 174.042M130.385 0V79.401" stroke="#FFF268" stroke-width="5.33333" stroke-miterlimit="10"/>
</svg>
