<svg width="259" height="235" viewBox="0 0 259 235" fill="none" xmlns="http://www.w3.org/2000/svg">
<path d="M142.818 221.583C131.526 230.458 129.443 231.922 129.443 231.922H129.266C129.266 231.922 121.958 226.797 60.6718 177.557C41.776 162.375 29.0208 146.828 20.4114 132.578M2.66663 75.2135C2.66663 35.1458 33.8281 2.66667 72.276 2.66667C96.1302 2.66667 116.812 15.1719 129.354 34.2396C141.896 15.1719 162.578 2.66667 186.432 2.66667C224.875 2.66667 256.042 35.1458 256.042 75.2135C256.042 75.2135 257.13 92.8854 246.292 117.292" stroke="#FF343B" stroke-width="5.33333" stroke-miterlimit="10"/>
<path d="M0.880127 104.359H43.2968L54.0728 85.7292L67.4791 122.995L86.5416 37.2344L107.104 154.708L131.625 85.3646L149.109 123.359L165.177 104.359H201.687" stroke="#FF343B" stroke-width="5.33333" stroke-miterlimit="10"/>
<path d="M211.781 176.125C211.781 169.089 206.312 163.385 199.562 163.385C192.812 163.385 187.339 169.089 187.339 176.125C187.339 183.156 192.812 188.859 199.562 188.859C206.312 188.859 211.781 183.156 211.781 176.125Z" fill="#FF343B"/>
<path d="M142.818 175.292C142.818 144.021 168.172 118.667 199.443 118.667M142.818 175.292C142.818 206.568 168.172 231.922 199.443 231.922M142.818 175.292H163.364M199.443 118.667C230.719 118.667 256.073 144.021 256.073 175.292M199.443 118.667V139.693M256.073 175.292C256.073 206.568 230.719 231.922 199.443 231.922M256.073 175.292H235.625M199.443 231.922V211.573M199.562 176.125L227.844 146.974" stroke="#FF343B" stroke-width="5.33333" stroke-miterlimit="10"/>
</svg>
