<svg width="258" height="240" viewBox="0 0 258 240" fill="none" xmlns="http://www.w3.org/2000/svg">
<path d="M146.45 239.266C138.409 239.266 131.044 237.339 124.367 233.474C117.685 229.599 112.414 224.323 108.555 217.641C104.69 210.964 102.763 203.599 102.763 195.557C102.763 187.516 104.69 180.156 108.555 173.474C112.414 166.797 117.685 161.526 124.367 157.662C131.044 153.802 138.409 151.87 146.45 151.87C154.503 151.87 161.872 153.802 168.555 157.662C175.232 161.526 180.503 166.797 184.367 173.474C188.227 180.156 190.159 187.516 190.159 195.557C190.159 203.599 188.227 210.964 184.367 217.641C180.503 224.323 175.232 229.599 168.555 233.474C161.872 237.339 154.503 239.266 146.45 239.266ZM146.45 231.662C153.128 231.662 159.227 230.073 164.742 226.891C170.253 223.714 174.581 219.365 177.721 213.849C180.857 208.339 182.43 202.24 182.43 195.557C182.43 188.88 180.857 182.781 177.721 177.266C174.581 171.755 170.253 167.412 164.742 164.245C159.227 161.068 153.169 159.474 146.575 159.474C139.893 159.474 133.794 161.068 128.284 164.245C122.784 167.412 118.44 171.755 115.263 177.266C112.081 182.781 110.492 188.88 110.492 195.557C110.492 202.24 112.081 208.339 115.263 213.849C118.44 219.365 122.784 223.714 128.284 226.891C133.794 230.073 139.852 231.662 146.45 231.662Z" fill="#00E0FF"/>
<path d="M201.988 162.37C204.889 159.385 208.509 156.927 212.842 154.995C217.186 153.068 222.019 152.099 227.342 152.099C232.644 152.099 237.348 153.266 241.447 155.599C245.556 157.932 248.759 161.052 251.051 164.953C253.353 168.859 254.509 173.141 254.509 177.807C254.509 181.516 253.842 185.068 252.509 188.453C251.176 191.828 249.098 195.287 246.28 198.828C243.473 202.359 239.535 206.62 234.467 211.62L209.113 236.349L207.176 230.203H257.884V237.807H197.884V237.078L228.78 206.787C233.78 201.885 237.519 197.885 240.009 194.787C242.509 191.677 244.259 188.859 245.259 186.328C246.269 183.787 246.78 180.948 246.78 177.807C246.78 174.516 245.993 171.505 244.426 168.766C242.853 166.031 240.598 163.839 237.655 162.182C234.723 160.531 231.285 159.703 227.342 159.703C222.353 159.703 217.723 160.776 213.447 162.912C209.181 165.037 205.561 167.912 202.592 171.537H201.988V162.37Z" fill="#00E0FF"/>
<path d="M151 133.663C149.469 129.486 147.583 125.481 145.38 121.679H145.406L79.8646 5.38744L12.9115 121.679H12.9375C6.41667 132.94 2.66667 146.002 2.66667 159.95C2.66667 202.195 36.9115 236.445 79.1615 236.445C83.1771 236.445 87.1198 236.132 90.9688 235.538M27.9688 159.19C27.9688 159.19 27.9688 209.622 83.8542 209.622" stroke="#00E0FF" stroke-width="5.33333" stroke-miterlimit="10"/>
</svg>
