<svg width="257" height="236" viewBox="0 0 257 236" fill="none" xmlns="http://www.w3.org/2000/svg">
<path d="M84.9167 175.078C84.9167 160.88 73.875 149.365 60.25 149.365C46.625 149.365 35.5781 160.88 35.5781 175.078C35.5781 189.276 46.625 200.786 60.25 200.786C73.875 200.786 84.9167 189.276 84.9167 175.078Z" fill="#FD9621"/>
<path d="M128.271 17.0521H254.333M128.875 46.3906H254.333M128.875 75H256.74M128.875 103.792H256.74M60.25 74.6406V175.766M88.8646 125.089V31.6354C88.8646 15.6354 75.8906 2.66666 59.8958 2.66666C43.8958 2.66666 30.9219 15.6354 30.9219 31.6354V125.495C14.0104 135.526 2.66667 153.958 2.66667 175.047C2.66667 206.844 28.4479 232.625 60.25 232.625C92.0469 232.625 117.828 206.844 117.828 175.047C117.828 153.661 106.167 135.021 88.8646 125.089Z" stroke="#FD9621" stroke-width="5.33333" stroke-miterlimit="10"/>
</svg>
