<svg width="259" height="236" viewBox="0 0 259 236" fill="none" xmlns="http://www.w3.org/2000/svg">
<path d="M20.6146 132.906C29.2239 147.063 41.9219 162.49 60.6719 177.557C121.958 226.797 129.443 231.922 129.443 231.922C129.443 231.922 136.75 226.797 198.036 177.557C259.318 128.318 256.042 75.2135 256.042 75.2135C256.042 35.1458 224.875 2.66667 186.432 2.66667C162.578 2.66667 141.896 15.1719 129.354 34.2344C116.812 15.1719 96.1302 2.66667 72.276 2.66667C33.8333 2.66667 2.66666 35.1458 2.66666 75.2135" stroke="#00FF00" stroke-width="5.33333" stroke-miterlimit="10"/>
<path d="M1.20834 104.359H43.625L54.4011 85.7292L67.8073 122.995L88.3177 45.4896L107.432 154.708L131.953 85.3646L149.438 123.359L165.505 104.359H204.474" stroke="#00FF00" stroke-width="5.33333" stroke-miterlimit="10"/>
<path d="M216.698 104.359C216.698 97.3281 211.224 91.625 204.474 91.625C197.724 91.625 192.255 97.3281 192.255 104.359C192.255 111.396 197.724 117.099 204.474 117.099C211.224 117.099 216.698 111.396 216.698 104.359Z" fill="#00FF00"/>
</svg>
