<?xml version="1.0" encoding="UTF-8"?>
<svg id="Layer_1" xmlns="http://www.w3.org/2000/svg" version="1.1" viewBox="0 0 1094 453">
  <!-- Generator: Adobe Illustrator 30.0.0, SVG Export Plug-In . SVG Version: 2.1.1 Build 123)  -->
  <defs>
    <style>
      .st0 {
        stroke: #5a5a5a;
      }

      .st0, .st1 {
        fill: none;
      }

      .st2 {
        fill: #fff;
      }

      .st3 {
        fill: #48e360;
      }

      .st1 {
        stroke: #fff;
      }
    </style>
  </defs>
  <rect y="0" width="1094" height="453"/>
  <path d="M0,0h1094v36H0V0Z"/>
  <path class="st2" d="M0,0V-1h-1V0H0ZM1094,0h1V-1h-1V0ZM0,0v1h1094V-1H0V0ZM1094,0h-1v36h2V0h-1ZM0,36h1V0H-1v36H0Z"/>
  <line class="st0" x1="51.5" y1="1" x2="51.5" y2="35"/>
  <path class="st3" d="M131.13,27.8c-1.87,0-3.27-.57-4.22-1.72-.93-1.15-1.4-2.83-1.4-5.03,0-1.05.13-2.1.4-3.15.27-1.05.65-2.05,1.15-3,.5-.97,1.09-1.87,1.77-2.7.7-.83,1.48-1.55,2.33-2.15h3.57c-1.02.78-1.89,1.53-2.62,2.25-.73.7-1.36,1.4-1.88,2.1-.5.7-.91,1.43-1.23,2.18-.32.73-.56,1.53-.72,2.4h.32c.28-.8.73-1.41,1.35-1.83.62-.43,1.35-.65,2.2-.65,1.42,0,2.53.46,3.35,1.38.83.92,1.25,2.27,1.25,4.05s-.48,3.29-1.45,4.33c-.95,1.03-2.34,1.55-4.18,1.55h0ZM131.13,25.58c1.88,0,2.82-1.03,2.82-3.1v-.65c0-2.07-.94-3.1-2.82-3.1s-2.82,1.03-2.82,3.1v.65c0,2.07.94,3.1,2.82,3.1ZM144.08,27.8c-.98,0-1.83-.17-2.55-.5-.72-.35-1.31-.88-1.77-1.6-.47-.73-.81-1.67-1.03-2.8-.22-1.15-.32-2.52-.32-4.12s.11-2.97.32-4.1c.22-1.15.56-2.08,1.03-2.8.47-.73,1.06-1.27,1.77-1.6.72-.35,1.57-.52,2.55-.52s1.83.18,2.55.52c.72.33,1.3.87,1.75,1.6.47.72.81,1.65,1.02,2.8.23,1.13.35,2.5.35,4.1s-.12,2.98-.35,4.12c-.22,1.13-.56,2.07-1.02,2.8-.45.72-1.03,1.25-1.75,1.6-.72.33-1.57.5-2.55.5ZM144.08,25.52c1.05,0,1.78-.35,2.2-1.05.43-.72.65-1.81.65-3.27v-4.85c0-1.47-.22-2.55-.65-3.25-.42-.72-1.15-1.08-2.2-1.08s-1.79.36-2.23,1.08c-.42.7-.62,1.78-.62,3.25v4.85c0,1.47.21,2.56.62,3.27.43.7,1.18,1.05,2.23,1.05Z"/>
  <line class="st0" x1="225.17" y1="1" x2="225.17" y2="35"/>
  <path class="st3" d="M304.8,27.8c-1.87,0-3.27-.57-4.22-1.72-.93-1.15-1.4-2.83-1.4-5.03,0-1.05.13-2.1.4-3.15s.65-2.05,1.15-3c.5-.97,1.09-1.87,1.77-2.7.7-.83,1.48-1.55,2.33-2.15h3.57c-1.02.78-1.89,1.53-2.62,2.25-.73.7-1.36,1.4-1.88,2.1-.5.7-.91,1.43-1.23,2.18-.32.73-.56,1.53-.72,2.4h.32c.28-.8.73-1.41,1.35-1.83.62-.43,1.35-.65,2.2-.65,1.42,0,2.53.46,3.35,1.38.83.92,1.25,2.27,1.25,4.05s-.48,3.29-1.45,4.33c-.95,1.03-2.34,1.55-4.18,1.55h.01ZM304.8,25.58c1.88,0,2.83-1.03,2.83-3.1v-.65c0-2.07-.94-3.1-2.83-3.1s-2.82,1.03-2.82,3.1v.65c0,2.07.94,3.1,2.82,3.1ZM317.75,27.8c-.98,0-1.83-.17-2.55-.5-.72-.35-1.31-.88-1.77-1.6-.47-.73-.81-1.67-1.02-2.8-.22-1.15-.33-2.52-.33-4.12s.11-2.97.33-4.1c.22-1.15.56-2.08,1.02-2.8.47-.73,1.06-1.27,1.77-1.6.72-.35,1.57-.52,2.55-.52s1.83.18,2.55.52c.72.33,1.3.87,1.75,1.6.47.72.81,1.65,1.02,2.8.23,1.13.35,2.5.35,4.1s-.12,2.98-.35,4.12c-.22,1.13-.56,2.07-1.02,2.8-.45.72-1.03,1.25-1.75,1.6-.72.33-1.57.5-2.55.5ZM317.75,25.52c1.05,0,1.78-.35,2.2-1.05.43-.72.65-1.81.65-3.27v-4.85c0-1.47-.22-2.55-.65-3.25-.42-.72-1.15-1.08-2.2-1.08s-1.79.36-2.23,1.08c-.42.7-.62,1.78-.62,3.25v4.85c0,1.47.21,2.56.62,3.27.43.7,1.17,1.05,2.23,1.05Z"/>
  <line class="st0" x1="398.83" y1="1" x2="398.83" y2="35"/>
  <path class="st3" d="M478.47,27.8c-1.87,0-3.28-.57-4.23-1.72-.93-1.15-1.4-2.83-1.4-5.03,0-1.05.13-2.1.4-3.15s.65-2.05,1.15-3c.5-.97,1.09-1.87,1.77-2.7.7-.83,1.48-1.55,2.33-2.15h3.57c-1.02.78-1.89,1.53-2.62,2.25-.73.7-1.36,1.4-1.88,2.1-.5.7-.91,1.43-1.22,2.18-.32.73-.56,1.53-.73,2.4h.32c.28-.8.73-1.41,1.35-1.83.62-.43,1.35-.65,2.2-.65,1.42,0,2.53.46,3.35,1.38.83.92,1.25,2.27,1.25,4.05s-.48,3.29-1.45,4.33c-.95,1.03-2.34,1.55-4.17,1.55h.01ZM478.47,25.58c1.88,0,2.82-1.03,2.82-3.1v-.65c0-2.07-.94-3.1-2.82-3.1s-2.83,1.03-2.83,3.1v.65c0,2.07.94,3.1,2.83,3.1ZM491.42,27.8c-.98,0-1.83-.17-2.55-.5-.72-.35-1.31-.88-1.78-1.6-.47-.73-.81-1.67-1.02-2.8-.22-1.15-.32-2.52-.32-4.12s.11-2.97.32-4.1c.22-1.15.56-2.08,1.02-2.8.47-.73,1.06-1.27,1.78-1.6.72-.35,1.57-.52,2.55-.52s1.83.18,2.55.52c.72.33,1.3.87,1.75,1.6.47.72.81,1.65,1.03,2.8.23,1.13.35,2.5.35,4.1s-.12,2.98-.35,4.12c-.22,1.13-.56,2.07-1.03,2.8-.45.72-1.03,1.25-1.75,1.6-.72.33-1.57.5-2.55.5ZM491.42,25.52c1.05,0,1.78-.35,2.2-1.05.43-.72.65-1.81.65-3.27v-4.85c0-1.47-.22-2.55-.65-3.25-.42-.72-1.15-1.08-2.2-1.08s-1.79.36-2.23,1.08c-.42.7-.62,1.78-.62,3.25v4.85c0,1.47.21,2.56.62,3.27.43.7,1.18,1.05,2.23,1.05Z"/>
  <line class="st0" x1="572.5" y1="1" x2="572.5" y2="35"/>
  <path class="st3" d="M652.13,27.8c-1.87,0-3.28-.57-4.22-1.72-.93-1.15-1.4-2.83-1.4-5.03,0-1.05.13-2.1.4-3.15s.65-2.05,1.15-3c.5-.97,1.09-1.87,1.78-2.7.7-.83,1.47-1.55,2.33-2.15h3.57c-1.02.78-1.89,1.53-2.62,2.25-.73.7-1.36,1.4-1.88,2.1-.5.7-.91,1.43-1.22,2.18-.32.73-.56,1.53-.72,2.4h.32c.28-.8.73-1.41,1.35-1.83.62-.43,1.35-.65,2.2-.65,1.42,0,2.53.46,3.35,1.38.83.92,1.25,2.27,1.25,4.05s-.48,3.29-1.45,4.33c-.95,1.03-2.34,1.55-4.17,1.55h-.02ZM652.13,25.58c1.88,0,2.83-1.03,2.83-3.1v-.65c0-2.07-.94-3.1-2.83-3.1s-2.83,1.03-2.83,3.1v.65c0,2.07.94,3.1,2.83,3.1ZM665.08,27.8c-.98,0-1.83-.17-2.55-.5-.72-.35-1.31-.88-1.78-1.6-.47-.73-.81-1.67-1.02-2.8-.22-1.15-.33-2.52-.33-4.12s.11-2.97.33-4.1c.22-1.15.56-2.08,1.02-2.8.47-.73,1.06-1.27,1.78-1.6.72-.35,1.57-.52,2.55-.52s1.83.18,2.55.52c.72.33,1.3.87,1.75,1.6.47.72.81,1.65,1.03,2.8.23,1.13.35,2.5.35,4.1s-.12,2.98-.35,4.12c-.22,1.13-.56,2.07-1.03,2.8-.45.72-1.03,1.25-1.75,1.6-.72.33-1.57.5-2.55.5ZM665.08,25.52c1.05,0,1.78-.35,2.2-1.05.43-.72.65-1.81.65-3.27v-4.85c0-1.47-.22-2.55-.65-3.25-.42-.72-1.15-1.08-2.2-1.08s-1.79.36-2.22,1.08c-.42.7-.62,1.78-.62,3.25v4.85c0,1.47.21,2.56.62,3.27.43.7,1.17,1.05,2.22,1.05Z"/>
  <line class="st0" x1="746.17" y1="1" x2="746.17" y2="35"/>
  <path class="st3" d="M825.8,27.8c-1.87,0-3.27-.57-4.22-1.72-.93-1.15-1.4-2.83-1.4-5.03,0-1.05.13-2.1.4-3.15s.65-2.05,1.15-3c.5-.97,1.09-1.87,1.78-2.7.7-.83,1.47-1.55,2.33-2.15h3.58c-1.02.78-1.89,1.53-2.62,2.25-.73.7-1.36,1.4-1.88,2.1-.5.7-.91,1.43-1.23,2.18-.32.73-.56,1.53-.72,2.4h.33c.28-.8.73-1.41,1.35-1.83.62-.43,1.35-.65,2.2-.65,1.42,0,2.53.46,3.35,1.38.83.92,1.25,2.27,1.25,4.05s-.48,3.29-1.45,4.33c-.95,1.03-2.34,1.55-4.17,1.55h-.03ZM825.8,25.58c1.88,0,2.83-1.03,2.83-3.1v-.65c0-2.07-.94-3.1-2.83-3.1s-2.83,1.03-2.83,3.1v.65c0,2.07.94,3.1,2.83,3.1ZM838.75,27.8c-.98,0-1.83-.17-2.55-.5-.72-.35-1.31-.88-1.77-1.6-.47-.73-.81-1.67-1.03-2.8-.22-1.15-.33-2.52-.33-4.12s.11-2.97.33-4.1c.22-1.15.56-2.08,1.03-2.8.47-.73,1.06-1.27,1.77-1.6.72-.35,1.57-.52,2.55-.52s1.83.18,2.55.52c.72.33,1.3.87,1.75,1.6.47.72.81,1.65,1.02,2.8.23,1.13.35,2.5.35,4.1s-.12,2.98-.35,4.12c-.22,1.13-.56,2.07-1.02,2.8-.45.72-1.03,1.25-1.75,1.6-.72.33-1.57.5-2.55.5ZM838.75,25.52c1.05,0,1.78-.35,2.2-1.05.43-.72.65-1.81.65-3.27v-4.85c0-1.47-.22-2.55-.65-3.25-.42-.72-1.15-1.08-2.2-1.08s-1.79.36-2.22,1.08c-.42.7-.62,1.78-.62,3.25v4.85c0,1.47.21,2.56.62,3.27.43.7,1.17,1.05,2.22,1.05Z"/>
  <line class="st0" x1="919.83" y1="1" x2="919.83" y2="35"/>
  <path class="st3" d="M999.47,27.8c-1.87,0-3.27-.57-4.22-1.72-.93-1.15-1.4-2.83-1.4-5.03,0-1.05.13-2.1.4-3.15s.65-2.05,1.15-3c.5-.97,1.09-1.87,1.77-2.7.7-.83,1.48-1.55,2.33-2.15h3.58c-1.02.78-1.9,1.53-2.63,2.25-.73.7-1.36,1.4-1.87,2.1-.5.7-.91,1.43-1.23,2.18-.32.73-.56,1.53-.72,2.4h.33c.28-.8.73-1.41,1.35-1.83.62-.43,1.35-.65,2.2-.65,1.42,0,2.53.46,3.35,1.38.83.92,1.25,2.27,1.25,4.05s-.48,3.29-1.45,4.33c-.95,1.03-2.34,1.55-4.17,1.55h-.02ZM999.47,25.58c1.88,0,2.82-1.03,2.82-3.1v-.65c0-2.07-.94-3.1-2.82-3.1s-2.82,1.03-2.82,3.1v.65c0,2.07.94,3.1,2.82,3.1ZM1012.42,27.8c-.99,0-1.84-.17-2.55-.5-.72-.35-1.31-.88-1.78-1.6-.46-.73-.81-1.67-1.02-2.8-.22-1.15-.33-2.52-.33-4.12s.11-2.97.33-4.1c.21-1.15.56-2.08,1.02-2.8.47-.73,1.06-1.27,1.78-1.6.71-.35,1.56-.52,2.55-.52s1.83.18,2.55.52c.71.33,1.3.87,1.75,1.6.46.72.81,1.65,1.02,2.8.24,1.13.35,2.5.35,4.1s-.11,2.98-.35,4.12c-.21,1.13-.56,2.07-1.02,2.8-.45.72-1.04,1.25-1.75,1.6-.72.33-1.57.5-2.55.5ZM1012.42,25.52c1.05,0,1.78-.35,2.2-1.05.43-.72.65-1.81.65-3.27v-4.85c0-1.47-.22-2.55-.65-3.25-.42-.72-1.15-1.08-2.2-1.08s-1.79.36-2.23,1.08c-.41.7-.62,1.78-.62,3.25v4.85c0,1.47.21,2.56.62,3.27.44.7,1.18,1.05,2.23,1.05Z"/>
  <line class="st1" x1="1093.5" y1="1" x2="1093.5" y2="35"/>
  <path class="st2" d="M0,36v-1h-1v1H0ZM1094,36h1v-1h-1v1ZM0,36v1h1094v-2H0v1ZM1094,36h-1v381h2V36h-1ZM0,417h1V36H-1v381H0Z"/>
  <rect x=".5" y="417.5" width="1093" height="35"/>
  <rect class="st1" x=".5" y="417.5" width="1093" height="35"/>
  <line class="st0" x1="51.5" y1="418" x2="51.5" y2="452"/>
  <line class="st0" x1="225.17" y1="418" x2="225.17" y2="452"/>
  <line class="st0" x1="398.83" y1="418" x2="398.83" y2="452"/>
  <line class="st0" x1="572.5" y1="418" x2="572.5" y2="452"/>
  <line class="st0" x1="746.17" y1="418" x2="746.17" y2="452"/>
  <line class="st0" x1="919.83" y1="418" x2="919.83" y2="452"/>
  <line class="st1" x1="1093.5" y1="418" x2="1093.5" y2="452"/>
  <g>
    <path class="st2" d="M985.05,431.28h-.03l-1.58.85-.24-.94,1.99-1.06h1.05v9.1h-1.19v-7.96Z"/>
    <path class="st2" d="M995.61,434.59c0,3.1-1.15,4.8-3.17,4.8-1.78,0-2.98-1.67-3.01-4.68,0-3.05,1.32-4.73,3.17-4.73s3.01,1.71,3.01,4.61ZM990.66,434.73c0,2.37.73,3.71,1.85,3.71,1.26,0,1.86-1.47,1.86-3.8s-.57-3.71-1.85-3.71c-1.08,0-1.86,1.32-1.86,3.8Z"/>
    <path class="st2" d="M996.84,433.58c0-.52.35-.88.84-.88s.81.36.83.88c0,.49-.32.87-.84.87-.49,0-.83-.38-.83-.87ZM996.84,438.52c0-.52.35-.88.84-.88s.81.36.83.88c0,.49-.32.87-.84.87-.49,0-.83-.38-.83-.87Z"/>
    <path class="st2" d="M999.93,437.82c.35.22,1.16.57,2.02.57,1.58,0,2.07-1.01,2.06-1.76-.01-1.27-1.16-1.82-2.35-1.82h-.69v-.92h.69c.9,0,2.03-.46,2.03-1.54,0-.73-.46-1.37-1.6-1.37-.73,0-1.43.32-1.82.6l-.32-.9c.48-.35,1.4-.7,2.38-.7,1.79,0,2.61,1.06,2.61,2.17,0,.94-.56,1.74-1.68,2.14v.03c1.12.22,2.03,1.06,2.03,2.34,0,1.46-1.13,2.73-3.32,2.73-1.02,0-1.92-.32-2.37-.62l.34-.95Z"/>
    <path class="st2" d="M1012.25,431.17h-3.47l-.35,2.34c.21-.03.41-.06.74-.06.7,0,1.4.15,1.96.49.71.41,1.3,1.19,1.3,2.34,0,1.78-1.41,3.11-3.39,3.11-.99,0-1.83-.28-2.27-.56l.31-.94c.38.22,1.12.5,1.95.5,1.16,0,2.16-.76,2.16-1.97-.01-1.18-.8-2.02-2.62-2.02-.52,0-.92.06-1.26.1l.59-4.37h4.36v1.04Z"/>
    <path class="st2" d="M1014.1,433.58c0-.52.35-.88.84-.88s.81.36.83.88c0,.49-.32.87-.84.87-.49,0-.83-.38-.83-.87ZM1014.1,438.52c0-.52.35-.88.84-.88s.81.36.83.88c0,.49-.32.87-.84.87-.49,0-.83-.38-.83-.87Z"/>
    <path class="st2" d="M1022.95,434.59c0,3.1-1.15,4.8-3.17,4.8-1.78,0-2.98-1.67-3.01-4.68,0-3.05,1.32-4.73,3.17-4.73s3.01,1.71,3.01,4.61ZM1018,434.73c0,2.37.73,3.71,1.85,3.71,1.26,0,1.86-1.47,1.86-3.8s-.57-3.71-1.85-3.71c-1.08,0-1.86,1.32-1.86,3.8Z"/>
    <path class="st2" d="M1030.13,434.59c0,3.1-1.15,4.8-3.17,4.8-1.78,0-2.98-1.67-3.01-4.68,0-3.05,1.32-4.73,3.17-4.73s3.01,1.71,3.01,4.61ZM1025.19,434.73c0,2.37.73,3.71,1.85,3.71,1.26,0,1.86-1.47,1.86-3.8s-.57-3.71-1.85-3.71c-1.08,0-1.86,1.32-1.86,3.8Z"/>
  </g>
  <g>
    <path class="st2" d="M811.38,431.67h-.03l-1.58.85-.24-.94,1.99-1.06h1.05v9.1h-1.19v-7.96Z"/>
    <path class="st2" d="M821.94,434.98c0,3.1-1.15,4.8-3.17,4.8-1.78,0-2.98-1.67-3.01-4.68,0-3.05,1.32-4.73,3.17-4.73s3.01,1.71,3.01,4.61ZM817,435.12c0,2.37.73,3.71,1.85,3.71,1.26,0,1.86-1.47,1.86-3.8s-.57-3.71-1.85-3.71c-1.08,0-1.86,1.32-1.86,3.8Z"/>
    <path class="st2" d="M823.17,433.97c0-.52.35-.88.84-.88s.81.36.83.88c0,.49-.32.87-.84.87-.49,0-.83-.38-.83-.87ZM823.17,438.91c0-.52.35-.88.84-.88s.81.36.83.88c0,.49-.32.87-.84.87-.49,0-.83-.38-.83-.87Z"/>
    <path class="st2" d="M826.27,438.21c.35.22,1.16.57,2.02.57,1.58,0,2.07-1.01,2.06-1.76-.01-1.27-1.16-1.82-2.35-1.82h-.69v-.92h.69c.9,0,2.03-.46,2.03-1.54,0-.73-.46-1.37-1.6-1.37-.73,0-1.43.32-1.82.6l-.32-.9c.48-.35,1.4-.7,2.38-.7,1.79,0,2.61,1.06,2.61,2.17,0,.94-.56,1.74-1.68,2.14v.03c1.12.22,2.03,1.06,2.03,2.34,0,1.46-1.13,2.73-3.32,2.73-1.02,0-1.92-.32-2.37-.62l.34-.95Z"/>
    <path class="st2" d="M839.2,434.98c0,3.1-1.15,4.8-3.17,4.8-1.78,0-2.98-1.67-3.01-4.68,0-3.05,1.32-4.73,3.17-4.73s3.01,1.71,3.01,4.61ZM834.26,435.12c0,2.37.73,3.71,1.85,3.71,1.26,0,1.86-1.47,1.86-3.8s-.57-3.71-1.85-3.71c-1.08,0-1.86,1.32-1.86,3.8Z"/>
    <path class="st2" d="M840.43,433.97c0-.52.35-.88.84-.88s.81.36.83.88c0,.49-.32.87-.84.87-.49,0-.83-.38-.83-.87ZM840.43,438.91c0-.52.35-.88.84-.88s.81.36.83.88c0,.49-.32.87-.84.87-.49,0-.83-.38-.83-.87Z"/>
    <path class="st2" d="M849.28,434.98c0,3.1-1.15,4.8-3.17,4.8-1.78,0-2.98-1.67-3.01-4.68,0-3.05,1.32-4.73,3.17-4.73s3.01,1.71,3.01,4.61ZM844.34,435.12c0,2.37.73,3.71,1.85,3.71,1.26,0,1.86-1.47,1.86-3.8s-.57-3.71-1.85-3.71c-1.08,0-1.86,1.32-1.86,3.8Z"/>
    <path class="st2" d="M856.46,434.98c0,3.1-1.15,4.8-3.17,4.8-1.78,0-2.98-1.67-3.01-4.68,0-3.05,1.32-4.73,3.17-4.73s3.01,1.71,3.01,4.61ZM851.52,435.12c0,2.37.73,3.71,1.85,3.71,1.26,0,1.86-1.47,1.86-3.8s-.57-3.71-1.85-3.71c-1.08,0-1.86,1.32-1.86,3.8Z"/>
  </g>
  <g>
    <path class="st2" d="M116.72,431.6h-.03l-1.58.85-.24-.94,1.99-1.06h1.05v9.1h-1.19v-7.96Z"/>
    <path class="st2" d="M127.28,434.9c0,3.1-1.15,4.8-3.17,4.8-1.78,0-2.98-1.67-3.01-4.68,0-3.05,1.32-4.73,3.17-4.73s3.01,1.71,3.01,4.61ZM122.33,435.04c0,2.37.73,3.71,1.85,3.71,1.26,0,1.86-1.47,1.86-3.8s-.57-3.71-1.85-3.71c-1.08,0-1.86,1.32-1.86,3.8Z"/>
    <path class="st2" d="M128.51,433.89c0-.52.35-.88.84-.88s.81.36.83.88c0,.49-.32.87-.84.87-.49,0-.83-.38-.83-.87ZM128.51,438.84c0-.52.35-.88.84-.88s.81.36.83.88c0,.49-.32.87-.84.87-.49,0-.83-.38-.83-.87Z"/>
    <path class="st2" d="M133.98,431.6h-.03l-1.58.85-.24-.94,1.99-1.06h1.05v9.1h-1.19v-7.96Z"/>
    <path class="st2" d="M144.54,434.9c0,3.1-1.15,4.8-3.17,4.8-1.78,0-2.98-1.67-3.01-4.68,0-3.05,1.32-4.73,3.17-4.73s3.01,1.71,3.01,4.61ZM139.59,435.04c0,2.37.73,3.71,1.85,3.71,1.26,0,1.86-1.47,1.86-3.8s-.57-3.71-1.85-3.71c-1.08,0-1.86,1.32-1.86,3.8Z"/>
    <path class="st2" d="M145.77,433.89c0-.52.35-.88.84-.88s.81.36.83.88c0,.49-.32.87-.84.87-.49,0-.83-.38-.83-.87ZM145.77,438.84c0-.52.35-.88.84-.88s.81.36.83.88c0,.49-.32.87-.84.87-.49,0-.83-.38-.83-.87Z"/>
    <path class="st2" d="M154.62,434.9c0,3.1-1.15,4.8-3.17,4.8-1.78,0-2.98-1.67-3.01-4.68,0-3.05,1.32-4.73,3.17-4.73s3.01,1.71,3.01,4.61ZM149.67,435.04c0,2.37.73,3.71,1.85,3.71,1.26,0,1.86-1.47,1.86-3.8s-.57-3.71-1.85-3.71c-1.08,0-1.86,1.32-1.86,3.8Z"/>
    <path class="st2" d="M161.8,434.9c0,3.1-1.15,4.8-3.17,4.8-1.78,0-2.98-1.67-3.01-4.68,0-3.05,1.32-4.73,3.17-4.73s3.01,1.71,3.01,4.61ZM156.86,435.04c0,2.37.73,3.71,1.85,3.71,1.26,0,1.86-1.47,1.86-3.8s-.57-3.71-1.85-3.71c-1.08,0-1.86,1.32-1.86,3.8Z"/>
  </g>
  <g>
    <path class="st2" d="M290.38,431.36h-.03l-1.58.85-.24-.94,1.99-1.06h1.05v9.1h-1.19v-7.96Z"/>
    <path class="st2" d="M300.94,434.66c0,3.1-1.15,4.8-3.17,4.8-1.78,0-2.98-1.67-3.01-4.68,0-3.05,1.32-4.73,3.17-4.73s3.01,1.71,3.01,4.61ZM296,434.8c0,2.37.73,3.71,1.85,3.71,1.26,0,1.86-1.47,1.86-3.8s-.57-3.71-1.85-3.71c-1.08,0-1.86,1.32-1.86,3.8Z"/>
    <path class="st2" d="M302.17,433.65c0-.52.35-.88.84-.88s.81.36.83.88c0,.49-.32.87-.84.87-.49,0-.83-.38-.83-.87ZM302.17,438.6c0-.52.35-.88.84-.88s.81.36.83.88c0,.49-.32.87-.84.87-.49,0-.83-.38-.83-.87Z"/>
    <path class="st2" d="M307.65,431.36h-.03l-1.58.85-.24-.94,1.99-1.06h1.05v9.1h-1.19v-7.96Z"/>
    <path class="st2" d="M317.59,431.25h-3.47l-.35,2.34c.21-.03.41-.06.74-.06.7,0,1.4.15,1.96.49.71.41,1.3,1.19,1.3,2.34,0,1.78-1.41,3.11-3.39,3.11-.99,0-1.83-.28-2.27-.56l.31-.94c.38.22,1.12.5,1.95.5,1.16,0,2.16-.76,2.16-1.97-.01-1.18-.8-2.02-2.62-2.02-.52,0-.92.06-1.26.1l.59-4.37h4.36v1.04Z"/>
    <path class="st2" d="M319.43,433.65c0-.52.35-.88.84-.88s.81.36.83.88c0,.49-.32.87-.84.87-.49,0-.83-.38-.83-.87ZM319.43,438.6c0-.52.35-.88.84-.88s.81.36.83.88c0,.49-.32.87-.84.87-.49,0-.83-.38-.83-.87Z"/>
    <path class="st2" d="M328.28,434.66c0,3.1-1.15,4.8-3.17,4.8-1.78,0-2.98-1.67-3.01-4.68,0-3.05,1.32-4.73,3.17-4.73s3.01,1.71,3.01,4.61ZM323.34,434.8c0,2.37.73,3.71,1.85,3.71,1.26,0,1.86-1.47,1.86-3.8s-.57-3.71-1.85-3.71c-1.08,0-1.86,1.32-1.86,3.8Z"/>
    <path class="st2" d="M335.46,434.66c0,3.1-1.15,4.8-3.17,4.8-1.78,0-2.98-1.67-3.01-4.68,0-3.05,1.32-4.73,3.17-4.73s3.01,1.71,3.01,4.61ZM330.52,434.8c0,2.37.73,3.71,1.85,3.71,1.26,0,1.86-1.47,1.86-3.8s-.57-3.71-1.85-3.71c-1.08,0-1.86,1.32-1.86,3.8Z"/>
  </g>
  <g>
    <path class="st2" d="M464.05,431.36h-.03l-1.58.85-.24-.94,1.99-1.06h1.05v9.1h-1.19v-7.96Z"/>
    <path class="st2" d="M474.61,434.66c0,3.1-1.15,4.8-3.17,4.8-1.78,0-2.98-1.67-3.01-4.68,0-3.05,1.32-4.73,3.17-4.73s3.01,1.71,3.01,4.61ZM469.66,434.8c0,2.37.73,3.71,1.85,3.71,1.26,0,1.86-1.47,1.86-3.8s-.57-3.71-1.85-3.71c-1.08,0-1.86,1.32-1.86,3.8Z"/>
    <path class="st2" d="M475.84,433.65c0-.52.35-.88.84-.88s.81.36.83.88c0,.49-.32.87-.84.87-.49,0-.83-.38-.83-.87ZM475.84,438.6c0-.52.35-.88.84-.88s.81.36.83.88c0,.49-.32.87-.84.87-.49,0-.83-.38-.83-.87Z"/>
    <path class="st2" d="M478.64,439.31v-.76l.97-.94c2.33-2.21,3.38-3.39,3.39-4.76,0-.92-.45-1.78-1.81-1.78-.83,0-1.51.42-1.93.77l-.39-.87c.63-.53,1.53-.92,2.58-.92,1.96,0,2.79,1.34,2.79,2.65,0,1.68-1.22,3.04-3.14,4.89l-.73.67v.03h4.09v1.02h-5.81Z"/>
    <path class="st2" d="M491.87,434.66c0,3.1-1.15,4.8-3.17,4.8-1.78,0-2.98-1.67-3.01-4.68,0-3.05,1.32-4.73,3.17-4.73s3.01,1.71,3.01,4.61ZM486.92,434.8c0,2.37.73,3.71,1.85,3.71,1.26,0,1.86-1.47,1.86-3.8s-.57-3.71-1.85-3.71c-1.08,0-1.86,1.32-1.86,3.8Z"/>
    <path class="st2" d="M493.1,433.65c0-.52.35-.88.84-.88s.81.36.83.88c0,.49-.32.87-.84.87-.49,0-.83-.38-.83-.87ZM493.1,438.6c0-.52.35-.88.84-.88s.81.36.83.88c0,.49-.32.87-.84.87-.49,0-.83-.38-.83-.87Z"/>
    <path class="st2" d="M501.95,434.66c0,3.1-1.15,4.8-3.17,4.8-1.78,0-2.98-1.67-3.01-4.68,0-3.05,1.32-4.73,3.17-4.73s3.01,1.71,3.01,4.61ZM497,434.8c0,2.37.73,3.71,1.85,3.71,1.26,0,1.86-1.47,1.86-3.8s-.57-3.71-1.85-3.71c-1.08,0-1.86,1.32-1.86,3.8Z"/>
    <path class="st2" d="M509.13,434.66c0,3.1-1.15,4.8-3.17,4.8-1.78,0-2.98-1.67-3.01-4.68,0-3.05,1.32-4.73,3.17-4.73s3.01,1.71,3.01,4.61ZM504.19,434.8c0,2.37.73,3.71,1.85,3.71,1.26,0,1.86-1.47,1.86-3.8s-.57-3.71-1.85-3.71c-1.08,0-1.86,1.32-1.86,3.8Z"/>
  </g>
  <g>
    <path class="st2" d="M637.72,431.6h-.03l-1.58.85-.24-.94,1.99-1.06h1.05v9.1h-1.19v-7.96Z"/>
    <path class="st2" d="M648.28,434.9c0,3.1-1.15,4.8-3.17,4.8-1.78,0-2.98-1.67-3.01-4.68,0-3.05,1.32-4.73,3.17-4.73s3.01,1.71,3.01,4.61ZM643.33,435.04c0,2.37.73,3.71,1.85,3.71,1.26,0,1.86-1.47,1.86-3.8s-.57-3.71-1.85-3.71c-1.08,0-1.86,1.32-1.86,3.8Z"/>
    <path class="st2" d="M649.51,433.89c0-.52.35-.88.84-.88s.81.36.83.88c0,.49-.32.87-.84.87-.49,0-.83-.38-.83-.87ZM649.51,438.84c0-.52.35-.88.84-.88s.81.36.83.88c0,.49-.32.87-.84.87-.49,0-.83-.38-.83-.87Z"/>
    <path class="st2" d="M652.31,439.55v-.76l.97-.94c2.33-2.21,3.38-3.39,3.39-4.76,0-.92-.45-1.78-1.81-1.78-.83,0-1.51.42-1.93.77l-.39-.87c.63-.53,1.53-.92,2.58-.92,1.96,0,2.79,1.34,2.79,2.65,0,1.68-1.22,3.04-3.14,4.89l-.73.67v.03h4.09v1.02h-5.81Z"/>
    <path class="st2" d="M664.92,431.48h-3.47l-.35,2.34c.21-.03.41-.06.74-.06.7,0,1.4.15,1.96.49.71.41,1.3,1.19,1.3,2.34,0,1.78-1.41,3.11-3.39,3.11-.99,0-1.83-.28-2.27-.56l.31-.94c.38.22,1.12.5,1.95.5,1.16,0,2.16-.76,2.16-1.97-.01-1.18-.8-2.02-2.62-2.02-.52,0-.92.06-1.26.1l.59-4.37h4.36v1.04Z"/>
    <path class="st2" d="M666.77,433.89c0-.52.35-.88.84-.88s.81.36.83.88c0,.49-.32.87-.84.87-.49,0-.83-.38-.83-.87ZM666.77,438.84c0-.52.35-.88.84-.88s.81.36.83.88c0,.49-.32.87-.84.87-.49,0-.83-.38-.83-.87Z"/>
    <path class="st2" d="M675.62,434.9c0,3.1-1.15,4.8-3.17,4.8-1.78,0-2.98-1.67-3.01-4.68,0-3.05,1.32-4.73,3.17-4.73s3.01,1.71,3.01,4.61ZM670.67,435.04c0,2.37.73,3.71,1.85,3.71,1.26,0,1.86-1.47,1.86-3.8s-.57-3.71-1.85-3.71c-1.08,0-1.86,1.32-1.86,3.8Z"/>
    <path class="st2" d="M682.8,434.9c0,3.1-1.15,4.8-3.17,4.8-1.78,0-2.98-1.67-3.01-4.68,0-3.05,1.32-4.73,3.17-4.73s3.01,1.71,3.01,4.61ZM677.86,435.04c0,2.37.73,3.71,1.85,3.71,1.26,0,1.86-1.47,1.86-3.8s-.57-3.71-1.85-3.71c-1.08,0-1.86,1.32-1.86,3.8Z"/>
  </g>
</svg>