<?xml version="1.0" encoding="UTF-8"?>
<svg id="Layer_1" xmlns="http://www.w3.org/2000/svg" version="1.1" viewBox="0 0 1141 1333.44">
  <!-- Generator: Adobe Illustrator 30.0.0, SVG Export Plug-In . SVG Version: 2.1.1 Build 123)  -->
  <defs>
    <style>
      .st0 {
        stroke-width: 4px;
      }

      .st0, .st1 {
        stroke: #fff;
      }

      .st0, .st2 {
        fill: none;
      }

      .st3 {
        fill: #fff;
      }

      .st4, .st1 {
        stroke-linejoin: round;
        stroke-width: 1.19px;
      }

      .st4, .st5 {
        fill: #44e35c;
      }

      .st4, .st2 {
        stroke: #44e35c;
      }

      .st6 {
        fill: #48e360;
      }

      .st2 {
        stroke-miterlimit: 10;
        stroke-width: 1.5px;
      }
    </style>
  </defs>
  <path class="st5" d="M.59,45.59v48.85h121l-36.37-50.6c-.38-.53-.91-.82-1.47-.82H2.59c-1.1,0-2,1.16-2,2.57Z"/>
  <path d="M25.16,70.89h-7.78v9.57h-4.8v-22.96h4.8v9.31h7.78v-9.31h4.8v22.96h-4.8v-9.57ZM39.33,80.46h-4.8v-22.96h10.13c2.1,0,3.7.65,4.8,1.94s1.64,3.03,1.64,5.2c0,1.69-.32,3.12-.97,4.27-.65,1.17-1.61,1.97-2.89,2.43l4.09,9.11h-5.2l-3.62-8.69h-3.19v8.69h0ZM44.06,67.86c.65,0,1.15-.16,1.51-.46.38-.33.57-.89.57-1.68v-1.97c0-.79-.19-1.33-.57-1.65-.36-.33-.86-.49-1.51-.49h-4.73v6.25h4.73Z"/>
  <path class="st1" d="M234.49,79.69l-24.83-34.84c-.57-.79-1.37-1.25-2.21-1.25h-106.01c-2.61,0-3.98,4-2.21,6.47l24.97,34.84c.57.79,1.37,1.25,2.21,1.25h105.87c2.61,0,3.98-3.99,2.21-6.47Z"/>
  <path class="st3" d="M127.97,70.98c-.96,0-1.8-.17-2.52-.52-.7-.36-1.3-.88-1.81-1.56l1.35-1.22c.38.52.82.91,1.32,1.2s1.05.42,1.69.42c1.52,0,2.29-.69,2.29-2.06,0-.56-.14-.97-.4-1.26-.27-.3-.74-.53-1.41-.69l-1.05-.22c-1.15-.25-2.01-.66-2.56-1.22-.54-.57-.81-1.36-.81-2.37,0-1.17.36-2.06,1.07-2.66.73-.6,1.73-.9,3.02-.9.92,0,1.7.16,2.33.47.63.3,1.2.78,1.66,1.42l-1.35,1.16c-.33-.46-.7-.8-1.13-1.03-.4-.23-.92-.34-1.55-.34-.7,0-1.24.15-1.59.43-.35.28-.52.75-.52,1.39,0,.53.14.94.4,1.22.28.26.74.47,1.36.61l1.05.24c.61.14,1.14.3,1.57.51.43.2.78.43,1.05.73.29.29.48.64.61,1.03.13.38.18.83.18,1.36,0,1.26-.37,2.23-1.13,2.89-.74.66-1.79.97-3.14.97,0,0,.02,0,.02,0ZM134.42,70.75v-12.64h7.48v1.69h-5.52v3.69h4.99v1.67h-4.99v3.91h5.52v1.69s-7.48,0-7.48,0ZM148.7,59.8v10.95h-1.96v-10.95h-3.42v-1.69h8.8v1.69s-3.42,0-3.42,0ZM152.64,66.19v-1.9h4.65v1.9h-4.65ZM161.57,58.12v8.19c0,1.02.18,1.76.53,2.25.36.49.99.73,1.9.73s1.55-.24,1.9-.73.53-1.24.53-2.25v-8.19h1.96v7.87c0,.86-.08,1.6-.24,2.23-.15.62-.39,1.15-.74,1.56-.35.41-.8.72-1.36.9-.55.2-1.24.29-2.05.29s-1.5-.1-2.07-.29c-.55-.2-1-.5-1.35-.9-.35-.41-.6-.93-.76-1.56-.15-.62-.22-1.37-.22-2.23v-7.87h1.97ZM171.15,70.75v-12.64h5.1c1.11,0,1.94.32,2.49.97.57.65.85,1.57.85,2.78s-.29,2.15-.85,2.8c-.55.65-1.39.96-2.49.96h-3.14v5.11h-1.96ZM173.11,63.96h2.98c.47,0,.82-.12,1.05-.34.24-.24.37-.62.37-1.15v-1.16c0-.52-.13-.89-.37-1.12-.23-.24-.59-.36-1.05-.36h-2.98v4.13h0ZM192.66,65.16h-5.14v5.59h-1.96v-12.64h1.96v5.37h5.14v-5.37h1.96v12.64h-1.96v-5.59ZM199.41,70.75h-1.96v-12.64h5.1c1.11,0,1.94.32,2.49.97.57.65.85,1.56.85,2.77,0,.97-.18,1.76-.55,2.37-.37.6-.92,1.01-1.66,1.22l2.46,5.3h-2.18l-2.24-5.16h-2.31v5.16h0ZM202.39,63.99c.47,0,.82-.12,1.05-.34.24-.24.37-.62.37-1.16v-1.18c0-.53-.13-.91-.37-1.15-.23-.24-.59-.36-1.05-.36h-2.98v4.19s2.98,0,2.98,0Z"/>
  <path class="st4" d="M353.58,79.6l-24.77-34.75c-.57-.79-1.37-1.25-2.21-1.25h-101.29c-2.61,0-3.98,4-2.21,6.47l25.29,35.34c.57.79,1.38,1.25,2.22,1.25l100.77-.59c2.6,0,3.96-4,2.2-6.47Z"/>
  <path d="M259.28,60.64v11.49h-2.93v-11.49h-3.41v-2.51h9.75v2.51h-3.41ZM267.53,72.12h-2.93v-13.99h6.17c1.28,0,2.26.39,2.93,1.18.66.78,1,1.84,1,3.17,0,1.03-.19,1.89-.59,2.61s-.98,1.21-1.76,1.48l2.49,5.55h-3.17l-2.21-5.28h-1.94v5.28h.01ZM270.41,64.46c.4,0,.7-.09.92-.27.23-.2.34-.54.34-1.03v-1.21c0-.48-.11-.81-.34-1-.22-.2-.52-.3-.92-.3h-2.89v3.8h2.89ZM277.09,72.12v-13.99h8.83v2.51h-5.9v3.17h5.01v2.48h-5.01v3.33h5.9v2.51h-8.83ZM292.1,64.63l-.89-2.23h-.33l.17,2.34v7.37h-2.73v-13.99h3.19l3.6,7.49.89,2.23h.33l-.17-2.34v-7.37h2.73v13.99h-3.19l-3.6-7.49ZM301.68,58.14h5.01c.87,0,1.65.14,2.33.4.69.25,1.28.67,1.76,1.23.47.56.84,1.27,1.1,2.17.26.87.38,1.95.38,3.21s-.13,2.33-.38,3.21-.63,1.61-1.1,2.17-1.06.98-1.76,1.24c-.68.25-1.46.37-2.33.37h-5.01v-13.99h0ZM306.69,69.61c1.65,0,2.48-.94,2.48-2.8v-3.37c0-1.86-.83-2.8-2.48-2.8h-2.08v8.98h2.08ZM318.73,72.37c-2.13,0-3.82-.74-5.03-2.21l1.88-1.84c.82,1.03,1.89,1.54,3.21,1.54s2.04-.59,2.04-1.76c0-.48-.13-.85-.37-1.13-.24-.26-.63-.45-1.15-.56l-1.3-.24c-1.33-.24-2.3-.69-2.93-1.34-.61-.67-.92-1.59-.92-2.76,0-1.36.41-2.39,1.23-3.11s2.02-1.07,3.6-1.07c2.02,0,3.55.64,4.6,1.93l-1.88,1.84c-.36-.42-.75-.74-1.2-.94-.43-.22-.96-.32-1.56-.32-.65,0-1.12.13-1.43.36-.28.24-.43.63-.43,1.17,0,.46.1.82.33,1.07.23.24.6.41,1.1.53l1.3.26c.69.15,1.29.32,1.78.54.5.2.91.46,1.23.77.33.32.56.71.69,1.14.15.44.23.95.23,1.54,0,1.49-.43,2.65-1.29,3.43-.86.77-2.11,1.17-3.74,1.17h.03-.02Z"/>
  <path class="st1" d="M.59,1280.24V94.45h1097.68c1.19,0,2.32.8,3.08,2.19l37.17,67.38c.6,1.09.93,2.44.93,3.83v1112.37c0,3.32-1.79,6.02-4,6.02H4.59c-2.21,0-4-2.7-4-6.02h0v.02h0Z"/>
  <line class="st0" x1="1055" y1="140.46" x2="1085.78" y2="170.08"/>
  <line class="st0" x1="1086.18" y1="140.46" x2="1055.4" y2="170.08"/>
  <path class="st2" d="M79.84,342.58c1.82,2.86,4.51,5.99,8.49,9.04,12.99,9.97,14.56,11,14.56,11,0,0,1.55-1.03,14.54-11,12.99-9.97,12.28-20.72,12.28-20.72,0-8.12-6.6-14.7-14.74-14.7-5.05,0-9.44,2.53-12.09,6.38-2.66-3.85-7.03-6.38-12.09-6.38-8.14,0-14.74,6.58-14.74,14.7"/>
  <path class="st2" d="M75.72,336.81h8.99l2.28-3.76,2.83,7.55,4.35-15.69,4.05,22.11,5.2-14.04,3.7,7.69,3.4-3.84h8.26"/>
  <path class="st5" d="M123.08,336.8c0-1.42-1.16-2.58-2.59-2.58s-2.59,1.16-2.59,2.58,1.16,2.58,2.59,2.58,2.59-1.16,2.59-2.58Z"/>
  <path class="st6" d="M160.49,320.59h5.56v15.74h.65c.47-1.59,1.3-2.8,2.48-3.67,1.23-.89,2.66-1.34,4.32-1.34,3.35,0,5.83,1.23,7.45,3.67,1.62,2.41,2.43,5.87,2.43,10.37s-.81,7.99-2.43,10.42c-1.62,2.41-4.1,3.61-7.45,3.61-1.66,0-3.09-.42-4.32-1.29-1.19-.89-2.01-2.13-2.48-3.72h-.65v4.38h-5.56v-38.19h0v.02h0ZM171.5,354.84c1.9,0,3.39-.57,4.43-1.71s1.57-2.74,1.57-4.79v-5.99c0-2.07-.53-3.67-1.57-4.79s-2.52-1.71-4.43-1.71c-1.58,0-2.9.4-3.94,1.19-1.01.78-1.51,1.87-1.51,3.25v10.12c0,1.38.5,2.46,1.51,3.25,1.04.78,2.36,1.19,3.94,1.19h0ZM189.39,331.93h5.56v4.38h.65c.47-1.59,1.3-2.8,2.48-3.67,1.23-.89,2.66-1.34,4.32-1.34,3.31,0,5.78,1.23,7.4,3.67,1.66,2.41,2.48,5.87,2.48,10.37s-.82,7.99-2.48,10.42c-1.62,2.41-4.09,3.61-7.4,3.61-1.66,0-3.09-.42-4.32-1.29-1.19-.89-2.01-2.13-2.48-3.72h-.65v14.71h-5.56v-37.16h0v.02h0ZM200.4,354.84c1.9,0,3.39-.57,4.43-1.71s1.57-2.74,1.57-4.79v-5.99c0-2.07-.53-3.67-1.57-4.79s-2.52-1.71-4.43-1.71c-1.58,0-2.9.4-3.94,1.19-1.01.78-1.51,1.87-1.51,3.25v10.12c0,1.38.5,2.46,1.51,3.25,1.04.78,2.36,1.19,3.94,1.19h0ZM218.27,358.77v-26.83h5.56v4.44h.65c1.12-3.36,3.36-5.06,6.75-5.06s5.82,1.72,6.97,5.16h.59c.58-1.75,1.5-3.05,2.75-3.87,1.26-.86,2.85-1.29,4.75-1.29,2.42,0,4.28.82,5.62,2.48,1.36,1.61,2.05,4.01,2.05,7.18v17.8h-5.56v-17.08c0-1.89-.38-3.34-1.13-4.33-.72-.99-1.84-1.5-3.35-1.5-1.36,0-2.55.42-3.56,1.29-.97.82-1.46,2-1.46,3.51v18.11h-5.56v-17.08c0-1.89-.38-3.34-1.13-4.33-.72-.99-1.84-1.5-3.35-1.5-1.4,0-2.59.42-3.56,1.29-.97.82-1.46,2-1.46,3.51v18.11h-5.57,0Z"/>
</svg>