<?xml version="1.0" encoding="UTF-8"?>
<svg id="Layer_1" xmlns="http://www.w3.org/2000/svg" version="1.1" viewBox="0 0 602 244">
  <!-- Generator: Adobe Illustrator 30.0.0, SVG Export Plug-In . SVG Version: 2.1.1 Build 123)  -->
  <defs>
    <style>
      .st0 {
        fill: none;
        stroke-miterlimit: 10;
        stroke-width: 1.5px;
      }

      .st0, .st1 {
        stroke: #ff343b;
      }

      .st2 {
        stroke: #fff;
        stroke-linejoin: round;
      }

      .st3, .st1 {
        fill: #ff343b;
      }

      .st1 {
        stroke-width: 1.05px;
      }
    </style>
  </defs>
  <path class="st1" d="M.53,2.53v33h126L94.62,1.17c-.38-.41-.91-.64-1.47-.64H2.53c-1.1,0-2,.9-2,2Z"/>
  <path d="M19.95,27.53l-1.07-4.27h-5.35l-1.07,4.27h-3.42l4.95-17.45h4.55l4.95,17.45h-3.53ZM16.93,16.35l-.55-3.03h-.4l-.55,3.03-1.03,4.02h3.6l-1.08-4.02ZM25.68,10.08h7.75c1.4,0,2.43.41,3.1,1.23.68.82,1.03,1.9,1.03,3.25,0,.73-.09,1.34-.28,1.82-.17.47-.39.84-.67,1.12-.27.27-.58.47-.92.6-.35.12-.71.18-1.08.2v.4c.4,0,.81.07,1.23.2.43.13.82.36,1.17.67.35.3.63.7.85,1.2.22.48.33,1.08.33,1.77s-.09,1.33-.28,1.95c-.18.6-.45,1.12-.8,1.57-.35.45-.77.81-1.27,1.08-.5.25-1.07.38-1.7.38h-8.45V10.08ZM29.26,24.5h3.88c.4,0,.72-.12.95-.35.25-.23.38-.62.38-1.17v-1.25c0-.55-.12-.94-.38-1.18-.23-.23-.55-.35-.95-.35h-3.88v4.3ZM29.26,17.25h3.3c.42,0,.74-.12.97-.35.23-.23.35-.62.35-1.15v-1.15c0-.53-.12-.92-.35-1.15-.23-.23-.56-.35-.97-.35h-3.3v4.15ZM40.72,27.53V10.08h7.55c1.57,0,2.76.5,3.58,1.5s1.22,2.33,1.22,4-.41,3-1.22,4-2.01,1.5-3.58,1.5h-3.97v6.45h-3.58ZM44.3,17.95h3.52c.48,0,.86-.12,1.12-.38.28-.25.42-.67.42-1.25v-1.5c0-.58-.14-1-.42-1.25-.27-.25-.64-.38-1.12-.38h-3.52v4.75Z"/>
  <path class="st2" d="M.53,238.53V35.53h573.31c1.18,0,2.3.52,3.06,1.43l22.69,27.04c.6.72.93,1.63.93,2.57v171.96c0,2.21-1.79,4-4,4H4.53c-2.21,0-4-1.79-4-4Z"/>
  <path class="st0" d="M514.28,174.41c-1.77,1.39-2.1,1.62-2.1,1.62h-.03s-1.14-.8-10.75-8.52c-2.96-2.38-4.96-4.82-6.31-7.05M492.31,151.46c0-6.28,4.88-11.37,10.91-11.37,3.74,0,6.98,1.96,8.95,4.95,1.97-2.99,5.21-4.95,8.95-4.95,6.03,0,10.91,5.09,10.91,11.37,0,0,.17,2.77-1.53,6.6"/>
  <path class="st0" d="M492.03,156.03h6.65l1.69-2.92,2.1,5.84,2.99-13.44,3.22,18.41,3.84-10.87,2.74,5.96,2.52-2.98h5.72"/>
  <path class="st3" d="M525.09,167.28c0-1.1-.86-2-1.92-2s-1.92.89-1.92,2,.86,2,1.92,2,1.92-.89,1.92-2Z"/>
  <path class="st0" d="M514.28,167.15c0-4.9,3.97-8.88,8.88-8.88M514.28,167.15c0,4.9,3.97,8.88,8.88,8.88M514.28,167.15h3.22M523.15,158.27c4.9,0,8.88,3.98,8.88,8.88M523.15,158.27v3.3M532.03,167.15c0,4.9-3.97,8.88-8.88,8.88M532.03,167.15h-3.2M523.15,176.03v-3.19M523.17,167.28l4.43-4.57"/>
  <path class="st3" d="M494.48,217.03v-18.2h3.61v3.01h.42c.72-2.29,2.18-3.43,4.38-3.43s3.77,1.17,4.51,3.5h.39c.37-1.19.97-2.07,1.79-2.62.82-.58,1.84-.88,3.08-.88,1.56,0,2.78.56,3.64,1.68.89,1.1,1.33,2.72,1.33,4.86v12.07h-3.6v-11.58c0-1.28-.24-2.26-.74-2.94-.47-.68-1.19-1.01-2.17-1.01-.89,0-1.66.29-2.31.88-.63.56-.95,1.35-.95,2.38v12.28h-3.6v-11.58c0-1.28-.24-2.26-.74-2.94-.47-.68-1.19-1.01-2.17-1.01-.91,0-1.68.29-2.31.88-.63.56-.95,1.35-.95,2.38v12.28h-3.61ZM522.33,217.03v-18.2h3.61v3.01h.42c.72-2.29,2.18-3.43,4.38-3.43s3.77,1.17,4.52,3.5h.38c.37-1.19.97-2.07,1.79-2.62.82-.58,1.84-.88,3.08-.88,1.56,0,2.78.56,3.64,1.68.89,1.1,1.33,2.72,1.33,4.86v12.07h-3.6v-11.58c0-1.28-.24-2.26-.73-2.94-.47-.68-1.19-1.01-2.17-1.01-.89,0-1.66.29-2.31.88-.63.56-.95,1.35-.95,2.38v12.28h-3.6v-11.58c0-1.28-.24-2.26-.73-2.94-.47-.68-1.19-1.01-2.17-1.01-.91,0-1.68.29-2.31.88-.63.56-.94,1.35-.94,2.38v12.28h-3.61ZM549.49,217.03v-2.97h2.98v-18.48h-2.98v-2.98h9.66v2.98h-2.98v18.48h2.98v2.97h-9.66ZM577.7,213.42h-.42c-.23,1.17-.83,2.14-1.78,2.9-.96.75-2.31,1.12-4.06,1.12-1.26,0-2.43-.23-3.5-.7-1.05-.47-1.97-1.2-2.77-2.2-.79-1.03-1.41-2.33-1.85-3.92-.44-1.61-.67-3.53-.67-5.77s.21-4.15.63-5.74c.44-1.61,1.07-2.93,1.89-3.96.84-1.03,1.84-1.77,3.01-2.24,1.17-.49,2.48-.74,3.95-.74,2.17,0,3.93.47,5.29,1.4,1.35.93,2.4,2.26,3.15,3.99l-3.04,1.79c-.42-1.19-1.06-2.14-1.92-2.84-.84-.7-1.98-1.05-3.43-1.05-1.75,0-3.11.56-4.1,1.68-.96,1.12-1.43,2.68-1.43,4.69v5.95c0,2.01.48,3.57,1.43,4.69.98,1.12,2.35,1.68,4.1,1.68.72,0,1.4-.1,2.03-.32.63-.21,1.18-.51,1.65-.91.49-.4.86-.89,1.12-1.47.28-.61.42-1.28.42-2.03v-2.14h-4.51v-3.18h8.12v12.91h-3.29v-3.6Z"/>
</svg>