<?xml version="1.0" encoding="UTF-8"?>
<svg id="Layer_1" xmlns="http://www.w3.org/2000/svg" version="1.1" viewBox="0 0 1141 834">
  <!-- Generator: Adobe Illustrator 30.0.0, SVG Export Plug-In . SVG Version: 2.1.1 Build 123)  -->
  <defs>
    <style>
      .st0 {
        stroke-width: 4px;
      }

      .st0, .st1 {
        stroke: #fff;
      }

      .st0, .st2 {
        fill: none;
      }

      .st3 {
        fill: #fff;
      }

      .st4, .st1 {
        stroke-linejoin: round;
        stroke-width: 1.19px;
      }

      .st4, .st5 {
        fill: #44e35c;
      }

      .st4, .st2 {
        stroke: #44e35c;
      }

      .st6 {
        fill: #48e360;
      }

      .st2 {
        stroke-miterlimit: 10;
        stroke-width: 1.5px;
      }
    </style>
  </defs>
  <path class="st5" d="M.59,2.15v38h121L85.22.79c-.38-.41-.91-.64-1.47-.64H2.59C1.49.15.59,1.05.59,2.15Z"/>
  <path d="M21.88,23.36h-6.96v8.73h-4.29V11.15h4.29v8.49h6.96v-8.49h4.29v20.94h-4.29s0-8.73,0-8.73ZM34.55,32.09h-4.29V11.15h9.06c1.88,0,3.31.59,4.29,1.77s1.47,2.76,1.47,4.74c0,1.54-.29,2.84-.87,3.9-.58,1.06-1.44,1.8-2.58,2.22l3.66,8.31h-4.65l-3.24-7.92h-2.85s0,7.92,0,7.92ZM38.78,20.6c.58,0,1.03-.14,1.35-.42.34-.3.51-.81.51-1.53v-1.8c0-.72-.17-1.22-.51-1.5-.32-.3-.77-.45-1.35-.45h-4.23v5.7h4.23Z"/>
  <path class="st1" d="M234.49,28.67L209.66,1.57c-.57-.62-1.37-.97-2.21-.97h-106.01c-2.61,0-3.98,3.11-2.21,5.03l24.97,27.1c.57.62,1.37.97,2.21.97h105.87c2.61,0,3.98-3.1,2.21-5.03Z"/>
  <path class="st3" d="M133.85,23.29c-.83,0-1.56-.15-2.18-.46-.61-.32-1.13-.78-1.57-1.38l1.17-1.07c.33.46.71.81,1.14,1.06s.91.37,1.46.37c1.32,0,1.98-.61,1.98-1.82,0-.49-.12-.86-.35-1.12-.23-.27-.64-.47-1.22-.61l-.91-.19c-1-.22-1.74-.58-2.22-1.07-.47-.5-.7-1.2-.7-2.1,0-1.03.31-1.82.93-2.35.63-.53,1.5-.8,2.62-.8.8,0,1.47.14,2.02.42.55.27,1.04.69,1.44,1.26l-1.17,1.02c-.29-.41-.61-.71-.98-.91-.35-.2-.8-.3-1.34-.3-.61,0-1.07.13-1.38.38-.3.25-.45.66-.45,1.23,0,.47.12.83.35,1.07.24.23.64.42,1.18.54l.91.21c.53.12.99.27,1.36.45.37.17.68.38.91.64.25.26.42.56.53.91.11.34.16.74.16,1.2,0,1.12-.32,1.97-.98,2.56-.64.58-1.55.86-2.72.86h0ZM139.44,23.09v-11.17h6.48v1.49h-4.78v3.26h4.32v1.47h-4.32v3.46h4.78v1.49s-6.48,0-6.48,0ZM151.81,13.41v9.68h-1.7v-9.68h-2.96v-1.49h7.62v1.49h-2.96,0ZM155.22,19.06v-1.68h4.03v1.68h-4.03ZM162.96,11.93v7.23c0,.9.16,1.56.46,1.98.31.43.86.64,1.65.64s1.34-.21,1.65-.64.46-1.09.46-1.98v-7.23h1.7v6.96c0,.76-.07,1.41-.21,1.97-.13.55-.34,1.01-.64,1.38-.3.36-.69.63-1.18.8-.48.17-1.07.26-1.78.26s-1.3-.09-1.79-.26c-.48-.17-.87-.44-1.17-.8-.3-.36-.52-.82-.66-1.38-.13-.55-.19-1.21-.19-1.97v-6.96s1.7,0,1.7,0ZM171.26,23.09v-11.17h4.42c.96,0,1.68.29,2.16.86.49.57.74,1.39.74,2.46s-.25,1.9-.74,2.48c-.48.57-1.2.85-2.16.85h-2.72v4.51h-1.7ZM172.96,17.08h2.58c.41,0,.71-.1.91-.3.21-.21.32-.55.32-1.01v-1.02c0-.46-.11-.79-.32-.99-.2-.21-.51-.32-.91-.32h-2.58v3.65h0ZM189.89,18.15h-4.45v4.94h-1.7v-11.17h1.7v4.75h4.45v-4.75h1.7v11.17h-1.7v-4.94ZM195.74,23.09h-1.7v-11.17h4.42c.96,0,1.68.29,2.16.86.49.57.74,1.38.74,2.45,0,.86-.16,1.56-.48,2.1-.32.53-.8.89-1.44,1.07l2.13,4.69h-1.89l-1.94-4.56h-2v4.56h0ZM198.32,17.11c.41,0,.71-.1.91-.3.21-.21.32-.55.32-1.02v-1.04c0-.47-.11-.81-.32-1.01-.2-.21-.51-.32-.91-.32h-2.58v3.7h2.58Z"/>
  <path class="st4" d="M353.58,28.6l-24.77-27.03c-.57-.62-1.37-.97-2.21-.97h-101.29c-2.61,0-3.98,3.11-2.21,5.03l25.29,27.49c.57.62,1.38.97,2.22.97l100.77-.46c2.6,0,3.96-3.11,2.2-5.03Z"/>
  <path d="M264.95,13.93v9.17h-2.29v-9.17h-2.67v-2h7.63v2h-2.67,0ZM271.41,23.09h-2.29v-11.17h4.83c1,0,1.77.31,2.29.94.52.63.78,1.47.78,2.53,0,.82-.15,1.51-.46,2.08s-.77.96-1.38,1.18l1.95,4.43h-2.48l-1.73-4.22h-1.52v4.22h.01ZM273.66,16.97c.31,0,.55-.07.72-.22.18-.16.27-.43.27-.82v-.96c0-.38-.09-.65-.27-.8-.17-.16-.41-.24-.72-.24h-2.26v3.04s2.26,0,2.26,0ZM278.89,23.09v-11.17h6.91v2h-4.62v2.53h3.92v1.98h-3.92v2.66h4.62v2h-6.91ZM290.64,17.11l-.7-1.78h-.26l.13,1.87v5.89h-2.14v-11.17h2.5l2.82,5.98.7,1.78h.26l-.13-1.87v-5.89h2.14v11.17h-2.5l-2.82-5.98ZM298.14,11.93h3.92c.68,0,1.29.11,1.82.32.54.2,1,.53,1.38.98.37.45.66,1.02.86,1.73.2.7.3,1.56.3,2.56s-.1,1.86-.3,2.56-.49,1.28-.86,1.73c-.37.45-.83.78-1.38.99-.53.2-1.14.3-1.82.3h-3.92s0-11.17,0-11.17ZM302.06,21.09c1.29,0,1.94-.75,1.94-2.24v-2.69c0-1.49-.65-2.24-1.94-2.24h-1.63v7.17h1.63ZM311.48,23.29c-1.67,0-2.99-.59-3.94-1.76l1.47-1.47c.64.82,1.48,1.23,2.51,1.23s1.6-.47,1.6-1.41c0-.38-.1-.68-.29-.9-.19-.21-.49-.36-.9-.45l-1.02-.19c-1.04-.19-1.8-.55-2.29-1.07-.48-.53-.72-1.27-.72-2.21,0-1.09.32-1.91.96-2.48.64-.57,1.58-.85,2.82-.85,1.58,0,2.78.51,3.6,1.54l-1.47,1.47c-.28-.34-.59-.59-.94-.75-.34-.17-.75-.26-1.22-.26-.51,0-.88.1-1.12.29-.22.19-.34.5-.34.93,0,.37.08.66.26.85.18.19.47.33.86.42l1.02.21c.54.12,1.01.26,1.39.43.39.16.71.37.96.62.26.26.44.56.54.91.12.35.18.76.18,1.23,0,1.19-.34,2.11-1.01,2.74-.67.62-1.65.93-2.93.93,0,0,.02,0,.02,0Z"/>
  <path class="st1" d="M.59,829.21V40.59h1097.68c1.19,0,2.32.53,3.08,1.45l37.17,44.81c.6.72.93,1.62.93,2.55v739.8c0,2.21-1.79,4-4,4H4.59c-2.21,0-4-1.79-4-4h0Z"/>
  <line class="st0" x1="1055" y1="88.73" x2="1085.78" y2="119.73"/>
  <line class="st0" x1="1086.18" y1="88.73" x2="1055.4" y2="119.73"/>
  <path class="st2" d="M66.77,267.64c1.35,2.22,3.34,4.64,6.29,7.01,9.62,7.73,10.79,8.53,10.79,8.53,0,0,1.15-.8,10.77-8.53,9.62-7.73,9.1-16.06,9.1-16.06,0-6.29-4.89-11.39-10.92-11.39-3.74,0-6.99,1.96-8.96,4.95-1.97-2.99-5.21-4.95-8.96-4.95-6.03,0-10.92,5.1-10.92,11.39"/>
  <path class="st2" d="M63.72,263.17h6.66l1.69-2.92,2.1,5.85,3.22-12.16,3,17.14,3.85-10.88,2.74,5.96,2.52-2.98h6.12"/>
  <path class="st5" d="M98.81,263.16c0-1.1-.86-2-1.92-2s-1.92.9-1.92,2,.86,2,1.92,2,1.92-.9,1.92-2Z"/>
  <path class="st6" d="M126.52,250.59h4.12v12.2h.48c.35-1.23.96-2.17,1.84-2.84.91-.69,1.97-1.04,3.2-1.04,2.48,0,4.32.95,5.52,2.84,1.2,1.87,1.8,4.55,1.8,8.04s-.6,6.19-1.8,8.08c-1.2,1.87-3.04,2.8-5.52,2.8-1.23,0-2.29-.33-3.2-1-.88-.69-1.49-1.65-1.84-2.88h-.48v3.4h-4.12v-29.6h0ZM134.68,277.15c1.41,0,2.51-.44,3.28-1.32s1.16-2.12,1.16-3.72v-4.64c0-1.6-.39-2.84-1.16-3.72s-1.87-1.32-3.28-1.32c-1.17,0-2.15.31-2.92.92-.75.61-1.12,1.45-1.12,2.52v7.84c0,1.07.37,1.91,1.12,2.52.77.61,1.75.92,2.92.92h0ZM147.93,259.39h4.12v3.4h.48c.35-1.23.96-2.17,1.84-2.84.91-.69,1.97-1.04,3.2-1.04,2.45,0,4.28.95,5.48,2.84,1.23,1.87,1.84,4.55,1.84,8.04s-.61,6.19-1.84,8.08c-1.2,1.87-3.03,2.8-5.48,2.8-1.23,0-2.29-.33-3.2-1-.88-.69-1.49-1.65-1.84-2.88h-.48v11.4h-4.12v-28.8h0ZM156.09,277.15c1.41,0,2.51-.44,3.28-1.32s1.16-2.12,1.16-3.72v-4.64c0-1.6-.39-2.84-1.16-3.72s-1.87-1.32-3.28-1.32c-1.17,0-2.15.31-2.92.92-.75.61-1.12,1.45-1.12,2.52v7.84c0,1.07.37,1.91,1.12,2.52.77.61,1.75.92,2.92.92h0ZM169.33,280.19v-20.8h4.12v3.44h.48c.83-2.61,2.49-3.92,5-3.92s4.31,1.33,5.16,4h.44c.43-1.36,1.11-2.36,2.04-3,.93-.67,2.11-1,3.52-1,1.79,0,3.17.64,4.16,1.92,1.01,1.25,1.52,3.11,1.52,5.56v13.8h-4.12v-13.24c0-1.47-.28-2.59-.84-3.36-.53-.77-1.36-1.16-2.48-1.16-1.01,0-1.89.33-2.64,1-.72.64-1.08,1.55-1.08,2.72v14.04h-4.12v-13.24c0-1.47-.28-2.59-.84-3.36-.53-.77-1.36-1.16-2.48-1.16-1.04,0-1.92.33-2.64,1-.72.64-1.08,1.55-1.08,2.72v14.04h-4.12Z"/>
</svg>