<?xml version="1.0" encoding="UTF-8"?>
<svg id="Layer_1" xmlns="http://www.w3.org/2000/svg" version="1.1" viewBox="0 0 269 245">
  <!-- Generator: Adobe Illustrator 30.0.0, SVG Export Plug-In . SVG Version: 2.1.1 Build 123)  -->
  <defs>
    <style>
      .st0, .st1 {
        fill: #fd9621;
      }

      .st2 {
        stroke: #fff;
        stroke-linejoin: round;
      }

      .st1 {
        stroke-width: 1.05px;
      }

      .st1, .st3 {
        stroke: #fd9621;
      }

      .st3 {
        fill: none;
        stroke-miterlimit: 10;
        stroke-width: 1.5px;
      }
    </style>
  </defs>
  <path class="st1" d="M.53,2.53v33h126L94.62,1.17c-.38-.41-.91-.64-1.47-.64H2.53c-1.1,0-2,.9-2,2Z"/>
  <path d="M16.9,13.2v14.32h-3.57v-14.32h-4.17v-3.12h11.92v3.12h-4.17ZM23.41,27.53V10.08h10.8v3.12h-7.22v3.95h6.12v3.1h-6.12v4.15h7.22v3.12h-10.8ZM48.81,18.43l.2-2.92h-.4l-1.08,2.77-2.9,6.33-2.88-6.33-1.08-2.77h-.4l.2,2.92v9.1h-3.35V10.08h3.75l2.38,5.2,1.3,3.73h.25l1.3-3.73,2.32-5.2h3.73v17.45h-3.35v-9.1ZM55.59,27.53V10.08h7.55c1.57,0,2.76.5,3.58,1.5.82,1,1.22,2.33,1.22,4s-.41,3-1.22,4c-.82,1-2.01,1.5-3.58,1.5h-3.97v6.45h-3.58ZM59.16,17.95h3.53c.48,0,.86-.12,1.12-.38.28-.25.42-.67.42-1.25v-1.5c0-.58-.14-1-.42-1.25-.27-.25-.64-.38-1.12-.38h-3.53v4.75Z"/>
  <path class="st2" d="M.53,240.03V36.53h240.54c1.19,0,2.32.53,3.08,1.45l22.46,27.1c.6.72.92,1.62.92,2.55v172.4c0,2.21-1.79,4-4,4H4.53c-2.21,0-4-1.79-4-4Z"/>
  <path class="st0" d="M198.48,174.47c0-2.24-1.74-4.05-3.88-4.05s-3.88,1.81-3.88,4.05,1.74,4.05,3.88,4.05,3.88-1.81,3.88-4.05Z"/>
  <path class="st3" d="M205.3,149.59h19.85M205.4,154.21h19.75M205.4,158.71h20.13M205.4,163.24h20.13M194.59,158.65v15.92M199.1,166.6v-14.71c0-2.52-2.04-4.56-4.56-4.56s-4.56,2.04-4.56,4.56v14.78c-2.66,1.58-4.45,4.48-4.45,7.8,0,5.01,4.06,9.06,9.07,9.06s9.07-4.06,9.07-9.06c0-3.37-1.84-6.3-4.56-7.87Z"/>
  <path class="st0" d="M196.48,224.95c-1.42,0-2.71-.23-3.85-.7-1.12-.49-2.09-1.25-2.9-2.27-.79-1.03-1.41-2.33-1.86-3.92-.42-1.61-.63-3.52-.63-5.74s.21-4.12.63-5.71c.44-1.61,1.06-2.93,1.86-3.96.82-1.03,1.78-1.77,2.9-2.24,1.14-.49,2.43-.74,3.85-.74,2.08,0,3.73.46,4.97,1.37,1.26.89,2.26,2.23,3.01,4.02l-3.15,1.75c-.42-1.38-1.01-2.37-1.79-2.98-.75-.61-1.76-.91-3.04-.91-1.66,0-2.95.57-3.88,1.71-.91,1.14-1.37,2.72-1.37,4.72v5.88c0,2.01.46,3.58,1.37,4.73.93,1.14,2.23,1.71,3.88,1.71,1.31,0,2.36-.33,3.15-.98.82-.65,1.45-1.7,1.89-3.15l3.08,1.82c-.77,1.8-1.8,3.17-3.08,4.13-1.28.96-2.96,1.44-5.04,1.44ZM212.98,211.58c-.82,0-1.57-.14-2.27-.42s-1.31-.68-1.82-1.19c-.51-.51-.92-1.13-1.22-1.85-.3-.75-.46-1.57-.46-2.49s.15-1.73.46-2.45c.3-.75.71-1.38,1.22-1.89s1.12-.91,1.82-1.19,1.46-.42,2.27-.42,1.54.14,2.24.42c.72.28,1.34.68,1.85,1.19.51.51.92,1.14,1.23,1.89.3.72.46,1.54.46,2.45s-.15,1.74-.46,2.49c-.3.72-.71,1.34-1.23,1.85-.51.51-1.13.91-1.85,1.19-.7.28-1.45.42-2.24.42ZM212.98,209.06c.89,0,1.61-.29,2.17-.88.56-.61.84-1.46.84-2.56s-.28-1.94-.84-2.52c-.56-.61-1.28-.91-2.17-.91s-1.61.3-2.17.91c-.56.58-.84,1.42-.84,2.52s.28,1.95.84,2.56c.56.58,1.28.88,2.17.88Z"/>
</svg>