<?xml version="1.0" encoding="UTF-8"?>
<svg id="Layer_1" xmlns="http://www.w3.org/2000/svg" version="1.1" viewBox="0 0 269 245">
  <!-- Generator: Adobe Illustrator 30.0.0, SVG Export Plug-In . SVG Version: 2.1.1 Build 123)  -->
  <defs>
    <style>
      .st0, .st1 {
        fill: #8000ff;
      }

      .st1 {
        stroke-width: 1.05px;
      }

      .st1, .st2 {
        stroke: #8000ff;
      }

      .st3 {
        stroke: #fff;
        stroke-linejoin: round;
      }

      .st2 {
        fill: none;
        stroke-miterlimit: 10;
        stroke-width: 1.5px;
      }
    </style>
  </defs>
  <path class="st1" d="M.53,2.53v33h126L94.62,1.17c-.38-.41-.91-.64-1.47-.64H2.53c-1.1,0-2,.9-2,2Z"/>
  <path d="M10.23,27.53V10.08h7.55c1.57,0,2.76.5,3.58,1.5.82,1,1.22,2.33,1.22,4s-.41,3-1.22,4c-.82,1-2.01,1.5-3.58,1.5h-3.97v6.45h-3.58ZM13.8,17.95h3.52c.48,0,.86-.12,1.12-.38.28-.25.43-.67.43-1.25v-1.5c0-.58-.14-1-.43-1.25-.27-.25-.64-.38-1.12-.38h-3.52v4.75ZM28.57,10.08v11.32c0,1.15.19,1.98.58,2.5.4.5,1.11.75,2.12.75s1.72-.25,2.1-.75c.4-.52.6-1.35.6-2.5v-11.32h3.58v10.85c0,1.23-.11,2.28-.33,3.15-.22.87-.58,1.58-1.08,2.15-.48.55-1.12.96-1.92,1.22-.8.25-1.78.38-2.95.38s-2.15-.12-2.95-.38c-.8-.27-1.45-.67-1.95-1.22-.48-.57-.83-1.28-1.05-2.15-.22-.87-.32-1.92-.32-3.15v-10.85h3.57ZM40.84,27.53V10.08h3.57v14.32h5.93v3.12h-9.5ZM57.95,27.83c-2.62,0-4.67-.92-6.15-2.75l2.3-2.3c1,1.28,2.31,1.92,3.92,1.92s2.5-.73,2.5-2.2c0-.6-.15-1.07-.45-1.4-.3-.33-.77-.57-1.4-.7l-1.6-.3c-1.62-.3-2.81-.86-3.58-1.68-.75-.83-1.12-1.98-1.12-3.45,0-1.7.5-2.99,1.5-3.88,1-.88,2.47-1.32,4.4-1.32,2.47,0,4.34.8,5.62,2.4l-2.3,2.3c-.43-.53-.93-.92-1.48-1.17-.53-.27-1.17-.4-1.9-.4-.8,0-1.38.15-1.75.45-.35.3-.53.78-.53,1.45,0,.58.13,1.02.4,1.32.28.3.73.52,1.35.65l1.6.33c.85.18,1.58.41,2.18.67.62.25,1.12.58,1.5.98.4.4.68.88.85,1.42.18.55.28,1.19.28,1.93,0,1.87-.53,3.29-1.58,4.27-1.05.97-2.58,1.45-4.58,1.45ZM66.75,27.53V10.08h10.8v3.12h-7.22v3.95h6.12v3.1h-6.12v4.15h7.22v3.12h-10.8Z"/>
  <path class="st3" d="M.53,240.03V36.53h240.54c1.19,0,2.32.53,3.08,1.45l22.46,27.1c.6.72.92,1.62.92,2.55v172.4c0,2.21-1.79,4-4,4H4.53c-2.21,0-4-1.79-4-4Z"/>
  <path class="st2" d="M185.53,168.54h8.8l2.92-15.01,6.05,30,7.04-23.9,3.57,13.31,2.35-4.45,9.27.06"/>
  <path class="st0" d="M187.98,198.63h3.6v10.68h.42c.3-1.07.84-1.9,1.61-2.49.79-.61,1.73-.91,2.8-.91,2.17,0,3.78.83,4.83,2.49,1.05,1.63,1.57,3.98,1.57,7.04s-.52,5.41-1.57,7.07c-1.05,1.63-2.66,2.45-4.83,2.45-1.07,0-2.01-.29-2.8-.88-.77-.61-1.31-1.45-1.61-2.52h-.42v2.97h-3.6v-25.9ZM195.12,221.87c1.24,0,2.19-.39,2.87-1.15.68-.77,1.01-1.86,1.01-3.26v-4.06c0-1.4-.34-2.49-1.01-3.26-.68-.77-1.63-1.15-2.87-1.15-1.03,0-1.88.27-2.56.81-.65.54-.98,1.27-.98,2.2v6.86c0,.93.33,1.67.98,2.21.68.54,1.53.81,2.56.81ZM206.71,206.33h3.61v2.98h.42c.3-1.07.84-1.9,1.61-2.49.79-.61,1.73-.91,2.8-.91,2.15,0,3.74.83,4.79,2.49,1.07,1.63,1.61,3.98,1.61,7.04s-.54,5.41-1.61,7.07c-1.05,1.63-2.65,2.45-4.79,2.45-1.07,0-2.01-.29-2.8-.88-.77-.61-1.31-1.45-1.61-2.52h-.42v9.97h-3.61v-25.2ZM213.85,221.87c1.24,0,2.19-.39,2.87-1.15.68-.77,1.01-1.86,1.01-3.26v-4.06c0-1.4-.34-2.49-1.01-3.26-.68-.77-1.63-1.15-2.87-1.15-1.03,0-1.88.27-2.56.81-.65.54-.98,1.27-.98,2.2v6.86c0,.93.33,1.67.98,2.21.68.54,1.53.81,2.56.81ZM225.44,224.53v-18.2h3.6v3.01h.42c.72-2.29,2.18-3.43,4.38-3.43s3.77,1.17,4.51,3.5h.39c.37-1.19.97-2.07,1.78-2.62.82-.58,1.84-.88,3.08-.88,1.56,0,2.78.56,3.64,1.68.89,1.1,1.33,2.72,1.33,4.86v12.07h-3.6v-11.58c0-1.28-.24-2.26-.74-2.94-.47-.68-1.19-1.01-2.17-1.01-.89,0-1.66.29-2.31.88-.63.56-.95,1.35-.95,2.38v12.28h-3.6v-11.58c0-1.28-.25-2.26-.74-2.94-.47-.68-1.19-1.01-2.17-1.01-.91,0-1.68.29-2.31.88-.63.56-.95,1.35-.95,2.38v12.28h-3.6Z"/>
</svg>