<?xml version="1.0" encoding="UTF-8"?>
<svg id="Layer_1" xmlns="http://www.w3.org/2000/svg" version="1.1" viewBox="0 0 269 245">
  <!-- Generator: Adobe Illustrator 30.0.0, SVG Export Plug-In . SVG Version: 2.1.1 Build 123)  -->
  <defs>
    <style>
      .st0, .st1 {
        fill: #fff268;
      }

      .st2 {
        stroke: #fff;
        stroke-linejoin: round;
      }

      .st3 {
        fill: none;
        stroke-miterlimit: 10;
        stroke-width: 1.5px;
      }

      .st3, .st1 {
        stroke: #fff268;
      }

      .st1 {
        stroke-width: 1.05px;
      }
    </style>
  </defs>
  <path class="st1" d="M.53,2.53v33h126L94.62,1.17c-.38-.41-.91-.64-1.47-.64H2.53c-1.1,0-2,.9-2,2Z"/>
  <path d="M13.8,27.53h-3.58V10.08h7.55c1.57,0,2.76.49,3.58,1.48.82.98,1.22,2.3,1.22,3.95,0,1.28-.24,2.37-.72,3.25-.48.88-1.2,1.5-2.15,1.85l3.05,6.92h-3.88l-2.7-6.6h-2.37v6.6ZM17.33,17.95c.48,0,.86-.12,1.12-.35.28-.25.43-.68.43-1.28v-1.5c0-.6-.14-1.02-.43-1.25-.27-.25-.64-.38-1.12-.38h-3.52v4.75h3.52ZM29.06,27.53h-3.58V10.08h7.55c1.57,0,2.76.49,3.58,1.48.82.98,1.23,2.3,1.23,3.95,0,1.28-.24,2.37-.73,3.25-.48.88-1.2,1.5-2.15,1.85l3.05,6.92h-3.88l-2.7-6.6h-2.38v6.6ZM32.59,17.95c.48,0,.86-.12,1.12-.35.28-.25.42-.68.42-1.28v-1.5c0-.6-.14-1.02-.42-1.25-.27-.25-.64-.38-1.12-.38h-3.53v4.75h3.53Z"/>
  <path class="st2" d="M.53,240.03V36.53h240.54c1.19,0,2.32.53,3.08,1.45l22.46,27.1c.6.72.92,1.62.92,2.55v172.4c0,2.21-1.79,4-4,4H4.53c-2.21,0-4-1.79-4-4Z"/>
  <path class="st3" d="M203.08,158.4v-2.36s.03-3.96-4.85-3.96-12.7,5.35-12.7,11.14v16.88s.06,3.43,3.43,3.43h5.35s8.78-.17,8.78-12.26v-5.54"/>
  <path class="st3" d="M193.21,159.83s-.62,1.72,1.75,3.84l1.64,1.53M198.3,165.21v3.82s-5.04-.44-4.35,5.62M207.97,158.4v-2.36s-.03-3.96,4.85-3.96,12.7,5.35,12.7,11.14v16.88s-.06,3.43-3.43,3.43h-5.35s-8.78-.17-8.78-12.26v-5.54"/>
  <path class="st3" d="M221.03,165.21h-9.62l-5.88-5.38-5.88,5.38h-9.62"/>
  <path class="st3" d="M217.84,159.83s.62,1.72-1.75,3.84l-1.64,1.53M212.76,165.21v3.82s5.04-.44,4.35,5.62M205.53,147.4v12.43"/>
  <path class="st0" d="M187.98,224.53v-18.2h3.6v3.61h.42c.26-1.17.74-2.05,1.43-2.66.72-.63,1.63-.95,2.73-.95h.91v3.68h-1.54c-1.28,0-2.26.24-2.94.74-.68.49-1.01,1.27-1.01,2.35v11.44h-3.6ZM200.11,206.33h3.61v2.98h.42c.3-1.07.84-1.9,1.61-2.49.79-.61,1.73-.91,2.8-.91,2.15,0,3.74.83,4.79,2.49,1.07,1.63,1.61,3.98,1.61,7.04s-.54,5.41-1.61,7.07c-1.05,1.63-2.65,2.45-4.79,2.45-1.07,0-2.01-.29-2.8-.88-.77-.61-1.31-1.45-1.61-2.52h-.42v9.97h-3.61v-25.2ZM207.25,221.87c1.24,0,2.19-.39,2.87-1.15.68-.77,1.01-1.86,1.01-3.26v-4.06c0-1.4-.34-2.49-1.01-3.26s-1.63-1.15-2.87-1.15c-1.03,0-1.88.27-2.56.81-.65.54-.98,1.27-.98,2.2v6.86c0,.93.33,1.67.98,2.21.68.54,1.53.81,2.56.81ZM218.84,224.53v-18.2h3.61v3.01h.42c.72-2.29,2.18-3.43,4.38-3.43s3.77,1.17,4.51,3.5h.38c.37-1.19.97-2.07,1.79-2.62.82-.58,1.84-.88,3.08-.88,1.56,0,2.78.56,3.64,1.68.89,1.1,1.33,2.72,1.33,4.86v12.07h-3.61v-11.58c0-1.28-.24-2.26-.74-2.94-.47-.68-1.19-1.01-2.17-1.01-.89,0-1.66.29-2.31.88-.63.56-.94,1.35-.94,2.38v12.28h-3.61v-11.58c0-1.28-.24-2.26-.74-2.94-.47-.68-1.19-1.01-2.17-1.01-.91,0-1.68.29-2.31.88-.63.56-.94,1.35-.94,2.38v12.28h-3.61Z"/>
</svg>