<?xml version="1.0" encoding="UTF-8"?>
<svg id="Layer_1" xmlns="http://www.w3.org/2000/svg" version="1.1" viewBox="0 0 269 245">
  <!-- Generator: Adobe Illustrator 30.0.0, SVG Export Plug-In . SVG Version: 2.1.1 Build 123)  -->
  <defs>
    <style>
      .st0 {
        stroke: #fff;
        stroke-linejoin: round;
      }

      .st1 {
        fill: none;
        stroke-miterlimit: 10;
        stroke-width: 1.5px;
      }

      .st1, .st2 {
        stroke: #00e0ff;
      }

      .st2 {
        stroke-width: 1.05px;
      }

      .st2, .st3 {
        fill: #00e0ff;
      }
    </style>
  </defs>
  <path class="st2" d="M.53,2.53v33h126L94.62,1.17c-.38-.41-.91-.64-1.47-.64H2.53c-1.1,0-2,.9-2,2Z"/>
  <path d="M15.33,27.83c-2.62,0-4.67-.92-6.15-2.75l2.3-2.3c1,1.28,2.31,1.92,3.93,1.92s2.5-.73,2.5-2.2c0-.6-.15-1.07-.45-1.4-.3-.33-.77-.57-1.4-.7l-1.6-.3c-1.62-.3-2.81-.86-3.57-1.68-.75-.83-1.12-1.98-1.12-3.45,0-1.7.5-2.99,1.5-3.88,1-.88,2.47-1.32,4.4-1.32,2.47,0,4.34.8,5.62,2.4l-2.3,2.3c-.43-.53-.93-.92-1.48-1.17-.53-.27-1.17-.4-1.9-.4-.8,0-1.38.15-1.75.45-.35.3-.52.78-.52,1.45,0,.58.13,1.02.4,1.32.28.3.73.52,1.35.65l1.6.33c.85.18,1.58.41,2.18.67.62.25,1.12.58,1.5.98.4.4.68.88.85,1.42.18.55.28,1.19.28,1.93,0,1.87-.53,3.29-1.58,4.27-1.05.97-2.58,1.45-4.57,1.45ZM23.94,14.4h3.5v2.17h.4c.07-.35.19-.67.38-.97.2-.3.43-.56.7-.77.27-.23.57-.41.9-.52.33-.13.68-.2,1.03-.2,1.52,0,2.62.58,3.32,1.73.72,1.15,1.08,2.87,1.08,5.15s-.35,4-1.05,5.15c-.7,1.13-1.82,1.7-3.35,1.7-.35,0-.69-.07-1.03-.2-.33-.12-.63-.28-.9-.5-.27-.23-.5-.5-.7-.8-.18-.3-.31-.62-.38-.97h-.4v7.18h-3.5V14.4ZM29.44,24.98c.65,0,1.17-.2,1.55-.6.4-.42.6-1,.6-1.75v-3.33c0-.75-.2-1.32-.6-1.73-.38-.42-.9-.62-1.55-.62s-1.12.15-1.47.45c-.35.28-.53.72-.53,1.3v4.53c0,.58.18,1.02.53,1.32.35.28.84.43,1.47.43ZM42.91,27.83c-1.05,0-1.95-.17-2.7-.5-.75-.35-1.38-.88-1.88-1.6-.48-.73-.84-1.67-1.08-2.8-.23-1.15-.35-2.52-.35-4.12s.12-2.97.35-4.1c.23-1.15.59-2.08,1.08-2.8.5-.73,1.12-1.27,1.88-1.6.75-.35,1.65-.52,2.7-.52s1.95.18,2.7.52c.75.33,1.37.87,1.85,1.6.5.72.87,1.65,1.1,2.8.23,1.13.35,2.5.35,4.1s-.12,2.98-.35,4.12c-.23,1.13-.6,2.07-1.1,2.8-.48.72-1.1,1.25-1.85,1.6-.75.33-1.65.5-2.7.5ZM42.91,24.83c.42,0,.77-.06,1.05-.17.28-.13.51-.33.67-.6.17-.28.28-.65.35-1.1.08-.45.12-1.01.12-1.67v-4.95c0-1.32-.16-2.23-.48-2.75-.32-.53-.89-.8-1.72-.8s-1.41.27-1.73.8c-.32.52-.47,1.43-.47,2.75v4.95c0,.67.03,1.23.1,1.67.08.45.21.82.38,1.1.17.27.39.47.68.6.28.12.63.17,1.05.17ZM62.12,27.53h-11.2v-3.25l4.77-4.67c.87-.85,1.48-1.58,1.83-2.18.37-.62.55-1.27.55-1.95v-.8c0-.57-.18-1.03-.55-1.38-.35-.35-.84-.53-1.47-.53-.37,0-.69.07-.98.23-.27.13-.5.32-.7.55-.18.23-.34.51-.48.82-.12.3-.21.62-.27.97l-3.1-1.17c.17-.6.39-1.17.67-1.7.3-.53.68-1,1.12-1.4.47-.4,1.03-.72,1.68-.95.67-.23,1.46-.35,2.38-.35,1,0,1.84.12,2.52.35.7.23,1.27.57,1.7,1,.43.42.74.94.92,1.57.2.62.3,1.31.3,2.07,0,.6-.06,1.15-.17,1.65-.12.5-.32,1-.6,1.5-.28.48-.67,1-1.15,1.55-.48.55-1.09,1.17-1.83,1.88l-3.32,3.17h7.38v3Z"/>
  <path class="st0" d="M.53,240.03V36.53h240.54c1.19,0,2.32.53,3.08,1.45l22.46,27.1c.6.72.92,1.62.92,2.55v172.4c0,2.21-1.79,4-4,4H4.53c-2.21,0-4-1.79-4-4Z"/>
  <path class="st3" d="M208.06,183.53c-1.26,0-2.41-.3-3.46-.91-1.05-.61-1.87-1.43-2.48-2.48-.61-1.05-.91-2.2-.91-3.46s.3-2.41.91-3.46c.61-1.05,1.43-1.87,2.48-2.48,1.05-.6,2.2-.91,3.46-.91s2.42.3,3.46.91c1.05.61,1.87,1.43,2.48,2.48.6,1.05.91,2.2.91,3.46s-.3,2.41-.91,3.46c-.61,1.05-1.43,1.87-2.48,2.48-1.05.61-2.2.91-3.46.91ZM208.06,182.34c1.05,0,2-.25,2.87-.75.86-.5,1.54-1.18,2.03-2.04.49-.86.74-1.82.74-2.87s-.25-2-.74-2.87c-.49-.86-1.17-1.54-2.03-2.04-.86-.5-1.81-.75-2.85-.75s-2,.25-2.87.75c-.86.5-1.54,1.18-2.04,2.04s-.75,1.82-.75,2.87.25,2,.75,2.87c.5.86,1.18,1.55,2.04,2.04.86.5,1.81.75,2.85.75Z"/>
  <path class="st3" d="M216.77,171.48c.45-.47,1.02-.85,1.7-1.15.68-.3,1.44-.45,2.27-.45s1.57.18,2.21.55c.64.37,1.15.85,1.5,1.47.36.61.54,1.28.54,2.01,0,.58-.1,1.14-.31,1.67-.21.53-.54,1.07-.98,1.63-.44.55-1.06,1.22-1.85,2l-3.97,3.88-.3-.96h7.95v1.19h-9.4v-.11l4.84-4.75c.78-.77,1.37-1.39,1.76-1.88.39-.49.67-.93.82-1.33.16-.4.24-.84.24-1.33,0-.52-.12-.99-.37-1.42-.25-.43-.6-.77-1.06-1.03-.46-.26-1-.39-1.62-.39-.78,0-1.51.17-2.18.5-.67.33-1.24.78-1.7,1.35h-.09v-1.44Z"/>
  <path class="st1" d="M208.77,166.98c-.24-.65-.53-1.28-.88-1.88h0l-10.27-18.23-10.49,18.23h0c-1.02,1.76-1.61,3.81-1.61,6,0,6.62,5.37,11.99,11.99,11.99.63,0,1.25-.05,1.85-.14M189.49,170.98s0,7.9,8.76,7.9"/>
  <path class="st3" d="M191.27,224.53l15.26-24.43h3.26l-15.26,24.43h-3.26ZM192.7,213.54c-1.73,0-3.06-.54-3.99-1.61-.91-1.1-1.37-2.87-1.37-5.32s.46-4.21,1.37-5.28c.93-1.1,2.26-1.65,3.99-1.65s3.02.55,3.96,1.65c.93,1.07,1.4,2.83,1.4,5.28s-.47,4.22-1.4,5.32c-.93,1.07-2.25,1.61-3.96,1.61ZM192.7,211.33c.75,0,1.29-.23,1.65-.7.37-.49.56-1.27.56-2.35v-3.36c0-1.07-.19-1.84-.56-2.31-.35-.49-.9-.74-1.65-.74s-1.31.24-1.68.74c-.35.47-.53,1.24-.53,2.31v3.36c0,1.07.18,1.85.53,2.35.37.47.93.7,1.68.7ZM208.35,224.95c-1.73,0-3.06-.54-3.99-1.61-.91-1.1-1.36-2.87-1.36-5.32s.46-4.21,1.36-5.29c.93-1.1,2.26-1.64,3.99-1.64s3.02.55,3.96,1.64c.93,1.07,1.4,2.84,1.4,5.29s-.47,4.22-1.4,5.32c-.93,1.07-2.25,1.61-3.96,1.61ZM208.35,222.74c.75,0,1.29-.23,1.65-.7.37-.49.56-1.27.56-2.35v-3.36c0-1.07-.19-1.84-.56-2.31-.35-.49-.9-.73-1.65-.73s-1.31.24-1.68.73c-.35.47-.53,1.24-.53,2.31v3.36c0,1.07.18,1.85.53,2.35.37.47.93.7,1.68.7Z"/>
</svg>